<svg width="1440" height="916" viewBox="0 0 1440 916" fill="none" xmlns="http://www.w3.org/2000/svg">
<g opacity="0.31">
<path opacity="0.01" d="M1529 271.367L1452.25 258.239C1375.5 245.112 1222 218.857 1068.5 310.749C915 402.642 761.5 612.681 608 612.681C454.5 612.681 301 402.642 147.5 428.897C-5.99997 455.152 -159.5 717.701 -236.25 848.976L-313 980.251" stroke="url(#paint0_linear_1_418)" stroke-width="2" stroke-linecap="round" stroke-linejoin="round"/>
<path opacity="0.02" d="M1524.2 268.728L1447.85 255.688C1371.5 242.648 1218.8 216.569 1066.1 307.847C913.401 399.125 760.7 607.761 608 607.761C455.299 607.761 302.599 399.125 149.898 425.204C-2.80231 451.284 -155.503 712.078 -231.853 842.476L-308.203 972.873" stroke="url(#paint1_linear_1_418)" stroke-width="2" stroke-linecap="round" stroke-linejoin="round"/>
<path opacity="0.03" d="M1519.41 266.089L1443.46 253.137C1367.51 240.185 1215.6 214.281 1063.7 304.945C911.802 395.609 759.901 602.841 608 602.841C456.099 602.841 304.198 395.609 152.297 421.513C0.39607 447.417 -151.505 706.456 -227.455 835.976L-303.406 965.496" stroke="url(#paint2_linear_1_418)" stroke-width="2" stroke-linecap="round" stroke-linejoin="round"/>
<path opacity="0.04" d="M1514.61 263.45L1439.06 250.586C1363.51 237.721 1212.41 211.993 1061.3 302.042C910.203 392.092 759.102 597.92 608 597.92C456.898 597.92 305.797 392.092 154.695 417.821C3.59372 443.549 -147.508 700.834 -223.059 829.476L-298.609 958.118" stroke="url(#paint3_linear_1_418)" stroke-width="2" stroke-linecap="round" stroke-linejoin="round"/>
<path opacity="0.05" d="M1509.81 260.81L1434.66 248.034C1359.51 235.257 1209.21 209.704 1058.91 299.14C908.604 388.575 758.302 592.999 608 592.999C457.698 592.999 307.396 388.575 157.093 414.128C6.79137 439.681 -143.511 695.211 -218.662 822.975L-293.813 950.74" stroke="url(#paint4_linear_1_418)" stroke-width="2" stroke-linecap="round" stroke-linejoin="round"/>
<path opacity="0.06" d="M1505.02 258.172L1430.26 245.483C1355.51 232.794 1206.01 207.417 1056.51 296.238C907.005 385.059 757.503 588.079 608 588.079C458.498 588.079 308.995 385.059 159.492 410.436C9.98988 435.814 -139.513 689.588 -214.264 816.476L-289.015 943.363" stroke="url(#paint5_linear_1_418)" stroke-width="2" stroke-linecap="round" stroke-linejoin="round"/>
<path opacity="0.07" d="M1500.22 255.533L1425.87 242.932C1351.52 230.331 1202.81 205.129 1054.11 293.336C905.406 381.542 756.703 583.158 608 583.158C459.297 583.158 310.594 381.542 161.891 406.744C13.1875 431.946 -135.516 683.966 -209.867 809.976L-284.219 935.985" stroke="url(#paint6_linear_1_418)" stroke-width="2" stroke-linecap="round" stroke-linejoin="round"/>
<path opacity="0.08" d="M1495.42 252.893L1421.47 240.38C1347.52 227.867 1199.61 202.84 1051.71 290.433C903.807 378.025 755.903 578.237 608 578.237C460.096 578.237 312.192 378.025 164.289 403.052C16.3852 428.078 -131.518 678.343 -205.47 803.475L-279.422 928.607" stroke="url(#paint7_linear_1_418)" stroke-width="2" stroke-linecap="round" stroke-linejoin="round"/>
<path opacity="0.09" d="M1490.63 250.254L1417.07 237.829C1343.52 225.404 1196.42 200.553 1049.31 287.531C902.209 374.509 755.104 573.317 608 573.317C460.896 573.317 313.792 374.509 166.688 399.36C19.5836 424.211 -127.521 672.721 -201.073 796.976L-274.625 921.23" stroke="url(#paint8_linear_1_418)" stroke-width="2" stroke-linecap="round" stroke-linejoin="round"/>
<path opacity="0.1" d="M1485.83 247.615L1412.68 235.278C1339.52 222.94 1193.22 198.265 1046.91 284.629C900.609 370.993 754.305 568.396 608 568.396C461.695 568.396 315.391 370.993 169.086 395.668C22.7812 420.344 -123.523 667.098 -196.676 790.475L-269.828 913.853" stroke="url(#paint9_linear_1_418)" stroke-width="2" stroke-linecap="round" stroke-linejoin="round"/>
<path opacity="0.11" d="M1481.03 244.977L1408.28 232.727C1335.53 220.477 1190.02 195.977 1044.52 281.727C899.01 367.477 753.505 563.476 608 563.476C462.495 563.476 316.989 367.477 171.484 391.977C25.9789 416.477 -119.526 661.476 -192.279 783.976L-265.032 906.476" stroke="url(#paint10_linear_1_418)" stroke-width="2" stroke-linecap="round" stroke-linejoin="round"/>
<path opacity="0.12" d="M1476.23 242.337L1403.88 230.175C1331.53 218.013 1186.82 193.688 1042.12 278.824C897.412 363.96 752.706 558.555 608 558.555C463.295 558.555 318.589 363.96 173.883 388.284C29.1774 412.609 -115.528 655.853 -187.881 777.475L-260.234 899.098" stroke="url(#paint11_linear_1_418)" stroke-width="2" stroke-linecap="round" stroke-linejoin="round"/>
<path opacity="0.13" d="M1471.44 239.698L1399.48 227.624C1327.53 215.549 1183.63 191.4 1039.72 275.921C895.813 360.443 751.906 553.634 608 553.634C464.094 553.634 320.188 360.443 176.281 384.592C32.375 408.741 -111.531 650.23 -183.484 770.975L-255.437 891.72" stroke="url(#paint12_linear_1_418)" stroke-width="2" stroke-linecap="round" stroke-linejoin="round"/>
<path opacity="0.14" d="M1466.64 237.06L1395.09 225.073C1323.53 213.086 1180.43 189.113 1037.32 273.02C894.213 356.927 751.107 548.714 608 548.714C464.893 548.714 321.786 356.927 178.679 380.9C35.5727 404.874 -107.534 644.608 -179.087 764.476L-250.641 884.343" stroke="url(#paint13_linear_1_418)" stroke-width="2" stroke-linecap="round" stroke-linejoin="round"/>
<path opacity="0.15" d="M1461.84 234.42L1390.69 222.521C1319.54 210.622 1177.23 186.824 1034.92 270.117C892.615 353.41 750.308 543.794 608 543.794C465.693 543.794 323.386 353.41 181.078 377.208C38.7711 401.006 -103.536 638.985 -174.69 757.975L-245.844 876.965" stroke="url(#paint14_linear_1_418)" stroke-width="2" stroke-linecap="round" stroke-linejoin="round"/>
<path opacity="0.16" d="M1457.05 231.781L1386.29 219.97C1315.54 208.158 1174.03 184.536 1032.52 267.214C891.016 349.893 749.508 538.873 608 538.873C466.492 538.873 324.984 349.893 183.477 373.515C41.9687 397.138 -99.5391 633.362 -170.293 751.475L-241.047 869.587" stroke="url(#paint15_linear_1_418)" stroke-width="2" stroke-linecap="round" stroke-linejoin="round"/>
<path opacity="0.17" d="M1452.25 229.142L1381.9 217.419C1311.54 205.695 1170.83 182.249 1030.12 264.313C889.416 346.377 748.708 533.953 608 533.953C467.291 533.953 326.583 346.377 185.875 369.824C45.1664 393.271 -95.542 627.741 -165.896 744.975L-236.25 862.21" stroke="url(#paint16_linear_1_418)" stroke-width="2" stroke-linecap="round" stroke-linejoin="round"/>
<path opacity="0.18" d="M1447.45 226.503L1377.5 214.867C1307.54 203.232 1167.64 179.96 1027.73 261.41C887.818 342.86 747.909 529.032 608 529.032C468.091 529.032 328.183 342.86 188.274 366.132C48.3649 389.403 -91.544 622.118 -161.498 738.475L-231.453 854.832" stroke="url(#paint17_linear_1_418)" stroke-width="2" stroke-linecap="round" stroke-linejoin="round"/>
<path opacity="0.19" d="M1442.66 223.864L1373.1 212.316C1303.55 200.768 1164.44 177.672 1025.33 258.508C886.219 339.343 747.109 524.111 608 524.111C468.891 524.111 329.781 339.343 190.672 362.439C51.5625 385.535 -87.5469 616.495 -157.102 731.974L-226.656 847.454" stroke="url(#paint18_linear_1_418)" stroke-width="2" stroke-linecap="round" stroke-linejoin="round"/>
<path opacity="0.2" d="M1437.86 221.225L1368.7 209.765C1299.55 198.305 1161.24 175.384 1022.93 255.606C884.62 335.827 746.31 519.191 608 519.191C469.69 519.191 331.38 335.827 193.07 358.748C54.7602 381.668 -83.5497 610.872 -152.705 725.475L-221.86 840.077" stroke="url(#paint19_linear_1_418)" stroke-width="2" stroke-linecap="round" stroke-linejoin="round"/>
<path opacity="0.21" d="M1433.06 218.586L1364.31 207.213C1295.55 195.841 1158.04 173.096 1020.53 252.703C883.021 332.311 745.511 514.27 608 514.27C470.49 514.27 332.979 332.311 195.469 355.056C57.9586 377.8 -79.5519 605.25 -148.307 718.975L-217.062 832.699" stroke="url(#paint20_linear_1_418)" stroke-width="2" stroke-linecap="round" stroke-linejoin="round"/>
<path opacity="0.22" d="M1428.27 215.946L1359.91 204.662C1291.55 193.377 1154.84 170.807 1018.13 249.8C881.422 328.794 744.711 509.349 608 509.349C471.289 509.349 334.578 328.794 197.867 351.363C61.1562 373.932 -75.5547 599.627 -143.91 712.474L-212.266 825.321" stroke="url(#paint21_linear_1_418)" stroke-width="2" stroke-linecap="round" stroke-linejoin="round"/>
<path opacity="0.23" d="M1423.47 213.308L1355.51 202.111C1287.56 190.914 1151.65 168.52 1015.73 246.899C879.823 325.278 743.911 504.429 608 504.429C472.088 504.429 336.177 325.278 200.265 347.671C64.354 370.065 -71.5575 594.005 -139.513 705.974L-207.469 817.944" stroke="url(#paint22_linear_1_418)" stroke-width="2" stroke-linecap="round" stroke-linejoin="round"/>
<path opacity="0.24" d="M1418.67 210.669L1351.12 199.56C1283.56 188.45 1148.45 166.232 1013.34 243.996C878.224 321.761 743.112 499.508 608 499.508C472.888 499.508 337.776 321.761 202.664 343.979C67.5524 366.198 -67.5596 588.382 -135.116 699.474L-202.672 810.567" stroke="url(#paint23_linear_1_418)" stroke-width="2" stroke-linecap="round" stroke-linejoin="round"/>
<path opacity="0.25" d="M1413.88 208.03L1346.72 197.008C1279.56 185.987 1145.25 163.944 1010.94 241.094C876.625 318.244 742.313 494.588 608 494.588C473.688 494.588 339.375 318.244 205.063 340.287C70.75 362.33 -63.5625 582.76 -130.719 692.974L-197.875 803.189" stroke="url(#paint24_linear_1_418)" stroke-width="2" stroke-linecap="round" stroke-linejoin="round"/>
<path opacity="0.26" d="M1409.08 205.391L1342.32 194.457C1275.56 183.523 1142.05 161.656 1008.54 238.192C875.026 314.728 741.513 489.667 608 489.667C474.487 489.667 340.974 314.728 207.461 336.595C73.9477 358.463 -59.5654 577.137 -126.322 686.474L-193.078 795.811" stroke="url(#paint25_linear_1_418)" stroke-width="2" stroke-linecap="round" stroke-linejoin="round"/>
<path opacity="0.27" d="M1404.28 202.751L1337.92 191.905C1271.57 181.059 1138.85 159.367 1006.14 235.289C873.427 311.211 740.714 484.746 608 484.746C475.287 484.746 342.573 311.211 209.86 332.903C77.1461 354.595 -55.5675 571.514 -121.924 679.974L-188.281 788.434" stroke="url(#paint26_linear_1_418)" stroke-width="2" stroke-linecap="round" stroke-linejoin="round"/>
<path opacity="0.28" d="M1399.48 200.113L1333.53 189.354C1267.57 178.596 1135.66 157.08 1003.74 232.387C871.828 307.695 739.914 479.826 608 479.826C476.086 479.826 344.172 307.695 212.258 329.211C80.3437 350.728 -51.5704 565.892 -117.527 673.474L-183.484 781.056" stroke="url(#paint27_linear_1_418)" stroke-width="2" stroke-linecap="round" stroke-linejoin="round"/>
<path opacity="0.29" d="M1394.69 197.474L1329.13 186.803C1263.57 176.133 1132.46 154.792 1001.34 229.485C870.229 304.178 739.114 474.906 608 474.906C476.885 474.906 345.771 304.178 214.656 325.519C83.5415 346.86 -47.5731 560.269 -113.13 666.974L-178.688 773.679" stroke="url(#paint28_linear_1_418)" stroke-width="2" stroke-linecap="round" stroke-linejoin="round"/>
<path opacity="0.3" d="M1389.89 194.834L1324.73 184.252C1259.58 173.669 1129.26 152.504 998.946 226.583C868.63 300.662 738.315 469.985 608 469.985C477.685 469.985 347.37 300.662 217.055 321.827C86.7399 342.992 -43.5752 554.647 -108.733 660.474L-173.89 766.301" stroke="url(#paint29_linear_1_418)" stroke-width="2" stroke-linecap="round" stroke-linejoin="round"/>
<path opacity="0.31" d="M1385.09 192.195L1320.34 181.7C1255.58 171.205 1126.06 150.215 996.547 223.68C867.031 297.145 737.516 465.064 608 465.064C478.484 465.064 348.969 297.145 219.453 318.135C89.9375 339.125 -39.5781 549.024 -104.336 653.974L-169.094 758.924" stroke="url(#paint30_linear_1_418)" stroke-width="2" stroke-linecap="round" stroke-linejoin="round"/>
<path opacity="0.32" d="M1380.3 189.556L1315.94 179.149C1251.58 168.742 1122.86 147.928 994.148 220.778C865.432 293.629 736.716 460.144 608 460.144C479.284 460.144 350.567 293.629 221.851 314.443C93.1352 335.257 -35.581 543.402 -99.9391 647.474L-164.297 751.546" stroke="url(#paint31_linear_1_418)" stroke-width="2" stroke-linecap="round" stroke-linejoin="round"/>
<path opacity="0.33" d="M1375.5 186.917L1311.54 176.598C1247.58 166.278 1119.67 145.639 991.75 217.876C863.834 290.112 735.917 455.223 608 455.223C480.084 455.223 352.167 290.112 224.25 310.751C96.3335 331.39 -31.5831 537.779 -95.5415 640.974L-159.5 744.168" stroke="url(#paint32_linear_1_418)" stroke-width="2" stroke-linecap="round" stroke-linejoin="round"/>
<path opacity="0.34" d="M1370.7 184.278L1307.14 174.047C1243.59 163.815 1116.47 143.352 989.352 214.974C862.234 286.596 735.117 450.303 608 450.303C480.883 450.303 353.766 286.596 226.648 307.059C99.5312 327.522 -27.586 532.157 -91.1446 634.474L-154.703 736.791" stroke="url(#paint33_linear_1_418)" stroke-width="2" stroke-linecap="round" stroke-linejoin="round"/>
<path opacity="0.35" d="M1365.91 181.639L1302.75 171.495C1239.59 161.351 1113.27 141.063 986.953 212.071C860.635 283.079 734.317 445.382 608 445.382C481.682 445.382 355.364 283.079 229.047 303.367C102.729 323.655 -23.5887 526.534 -86.7476 627.974L-149.906 729.413" stroke="url(#paint34_linear_1_418)" stroke-width="2" stroke-linecap="round" stroke-linejoin="round"/>
<path opacity="0.36" d="M1361.11 179L1298.35 168.944C1235.59 158.888 1110.07 138.775 984.555 209.169C859.037 279.562 733.518 440.462 608 440.462C482.482 440.462 356.964 279.562 231.446 299.675C105.927 319.787 -19.5909 520.911 -82.35 621.473L-145.109 722.036" stroke="url(#paint35_linear_1_418)" stroke-width="2" stroke-linecap="round" stroke-linejoin="round"/>
<path opacity="0.37" d="M1356.31 176.361L1293.95 166.393C1231.59 156.424 1106.88 136.487 982.156 206.266C857.438 276.046 732.719 435.541 608 435.541C483.281 435.541 358.563 276.046 233.844 295.983C109.125 315.92 -15.5937 515.289 -77.9531 614.973L-140.312 714.658" stroke="url(#paint36_linear_1_418)" stroke-width="2" stroke-linecap="round" stroke-linejoin="round"/>
<path opacity="0.38" d="M1351.52 173.722L1289.56 163.841C1227.6 153.961 1103.68 134.199 979.758 203.364C855.838 272.529 731.919 430.621 608 430.621C484.08 430.621 360.161 272.529 236.242 292.291C112.323 312.052 -11.5966 509.666 -73.5563 608.473L-135.516 707.28" stroke="url(#paint37_linear_1_418)" stroke-width="2" stroke-linecap="round" stroke-linejoin="round"/>
<path opacity="0.39" d="M1346.72 171.083L1285.16 161.29C1223.6 151.497 1100.48 131.911 977.36 200.462C854.24 269.013 731.12 425.7 608 425.7C484.88 425.7 361.761 269.013 238.641 288.599C115.521 308.184 -7.59875 504.044 -69.1587 601.973L-130.719 699.903" stroke="url(#paint38_linear_1_418)" stroke-width="2" stroke-linecap="round" stroke-linejoin="round"/>
<path opacity="0.4" d="M1341.92 168.444L1280.76 158.739C1219.6 149.034 1097.28 129.623 974.961 197.56C852.641 265.496 730.32 420.779 608 420.779C485.68 420.779 363.359 265.496 241.039 284.906C118.719 304.317 -3.60163 498.421 -64.7618 595.473L-125.922 692.525" stroke="url(#paint39_linear_1_418)" stroke-width="2" stroke-linecap="round" stroke-linejoin="round"/>
<path opacity="0.41" d="M1337.12 165.805L1276.36 156.187C1215.6 146.57 1094.08 127.335 972.562 194.657C851.041 261.979 729.521 415.859 608 415.859C486.479 415.859 364.958 261.979 243.437 281.214C121.916 300.449 0.395635 492.798 -60.3648 588.973L-121.125 685.148" stroke="url(#paint40_linear_1_418)" stroke-width="2" stroke-linecap="round" stroke-linejoin="round"/>
<path opacity="0.42" d="M1332.33 163.166L1271.97 153.636C1211.61 144.106 1090.89 125.047 970.164 191.755C849.443 258.463 728.722 410.938 608 410.938C487.279 410.938 366.558 258.463 245.836 277.522C125.115 296.582 4.3935 487.176 -55.9672 582.473L-116.328 677.77" stroke="url(#paint41_linear_1_418)" stroke-width="2" stroke-linecap="round" stroke-linejoin="round"/>
<path opacity="0.43" d="M1327.53 160.527L1267.57 151.085C1207.61 141.643 1087.69 122.759 967.766 188.853C847.844 254.946 727.922 406.018 608 406.018C488.078 406.018 368.156 254.946 248.234 273.83C128.312 292.714 8.39062 481.553 -51.5703 575.973L-111.531 670.393" stroke="url(#paint42_linear_1_418)" stroke-width="2" stroke-linecap="round" stroke-linejoin="round"/>
<path opacity="0.44" d="M1322.73 157.888L1263.17 148.534C1203.61 139.179 1084.49 120.471 965.367 185.95C846.245 251.43 727.122 401.097 608 401.097C488.877 401.097 369.755 251.43 250.633 270.138C131.51 288.847 12.3878 475.931 -47.1734 569.473L-106.735 663.015" stroke="url(#paint43_linear_1_418)" stroke-width="2" stroke-linecap="round" stroke-linejoin="round"/>
<path opacity="0.45" d="M1317.94 155.249L1258.78 145.982C1199.61 136.716 1081.29 118.183 962.969 183.048C844.646 247.913 726.323 396.177 608 396.177C489.677 396.177 371.354 247.913 253.031 266.446C134.709 284.979 16.3856 470.308 -42.7758 562.973L-101.937 655.637" stroke="url(#paint44_linear_1_418)" stroke-width="2" stroke-linecap="round" stroke-linejoin="round"/>
<path opacity="0.46" d="M1313.14 152.61L1254.38 143.431C1195.62 134.252 1078.09 115.895 960.57 180.146C843.047 244.397 725.523 391.256 608 391.256C490.477 391.256 372.953 244.397 255.43 262.754C137.906 281.111 20.3829 464.686 -38.3788 556.473L-97.1406 648.26" stroke="url(#paint45_linear_1_418)" stroke-width="2" stroke-linecap="round" stroke-linejoin="round"/>
<path opacity="0.47" d="M1308.34 149.971L1249.98 140.88C1191.62 131.789 1074.9 113.607 958.172 177.243C841.448 240.88 724.724 386.335 608 386.335C491.276 386.335 374.552 240.88 257.828 259.062C141.104 277.244 24.38 459.063 -33.982 549.973L-92.344 640.882" stroke="url(#paint46_linear_1_418)" stroke-width="2" stroke-linecap="round" stroke-linejoin="round"/>
<path opacity="0.48" d="M1303.55 147.331L1245.58 138.328C1187.62 129.325 1071.7 111.319 955.774 174.341C839.849 237.364 723.925 381.415 608 381.415C492.076 381.415 376.151 237.364 260.227 255.37C144.302 273.376 28.3779 453.44 -29.5844 543.473L-87.5466 633.505" stroke="url(#paint47_linear_1_418)" stroke-width="2" stroke-linecap="round" stroke-linejoin="round"/>
<path opacity="0.49" d="M1298.75 144.692L1241.19 135.777C1183.62 126.862 1068.5 109.031 953.375 171.439C838.25 233.847 723.125 376.494 608 376.494C492.875 376.494 377.75 233.847 262.625 251.678C147.5 269.509 32.375 447.818 -25.1875 536.972L-82.75 626.127" stroke="url(#paint48_linear_1_418)" stroke-width="2" stroke-linecap="round" stroke-linejoin="round"/>
<path opacity="0.5" d="M1293.95 142.053L1236.79 133.226C1179.63 124.398 1065.3 106.743 950.976 168.536C836.651 230.33 722.325 371.574 608 371.574C493.674 371.574 379.349 230.33 265.023 247.986C150.698 265.641 36.3721 442.195 -20.7906 530.472L-77.9534 618.749" stroke="url(#paint49_linear_1_418)" stroke-width="2" stroke-linecap="round" stroke-linejoin="round"/>
<path opacity="0.51" d="M1289.16 139.414L1232.39 130.674C1175.63 121.934 1062.1 104.454 948.578 165.634C835.052 226.814 721.526 366.653 608 366.653C494.474 366.653 380.948 226.814 267.422 244.294C153.896 261.774 40.37 436.573 -16.393 523.972L-73.1561 611.372" stroke="url(#paint50_linear_1_418)" stroke-width="2" stroke-linecap="round" stroke-linejoin="round"/>
<path opacity="0.52" d="M1284.36 136.775L1228 128.123C1171.63 119.471 1058.91 102.166 946.18 162.732C833.453 223.297 720.727 361.733 608 361.733C495.273 361.733 382.547 223.297 269.82 240.602C157.094 257.906 44.3672 430.95 -11.996 517.472L-68.3593 603.994" stroke="url(#paint51_linear_1_418)" stroke-width="2" stroke-linecap="round" stroke-linejoin="round"/>
<path opacity="0.53" d="M1279.56 134.136L1223.6 125.572C1167.64 117.007 1055.71 99.8784 943.781 159.83C831.854 219.781 719.927 356.812 608 356.812C496.073 356.812 384.146 219.781 272.219 236.91C160.291 254.039 48.3644 425.328 -7.59917 510.972L-63.5627 596.617" stroke="url(#paint52_linear_1_418)" stroke-width="2" stroke-linecap="round" stroke-linejoin="round"/>
<path opacity="0.54" d="M1274.77 131.497L1219.2 123.02C1163.64 114.544 1052.51 97.5903 941.383 156.927C830.255 216.264 719.128 351.891 608 351.891C496.873 351.891 385.745 216.264 274.617 233.218C163.49 250.171 52.3622 419.705 -3.20157 504.472L-58.7654 589.239" stroke="url(#paint53_linear_1_418)" stroke-width="2" stroke-linecap="round" stroke-linejoin="round"/>
<path opacity="0.55" d="M1269.97 128.858L1214.8 120.469C1159.64 112.08 1049.31 95.3023 938.984 154.025C828.656 212.748 718.328 346.971 608 346.971C497.672 346.971 387.344 212.748 277.016 229.526C166.687 246.303 56.3594 414.082 1.1953 497.972L-53.9688 581.862" stroke="url(#paint54_linear_1_418)" stroke-width="2" stroke-linecap="round" stroke-linejoin="round"/>
<path opacity="0.56" d="M1265.17 126.219L1210.41 117.918C1155.64 109.617 1046.11 93.0142 936.586 151.123C827.057 209.231 717.528 342.05 608 342.05C498.471 342.05 388.942 209.231 279.414 225.833C169.885 242.436 60.3565 408.46 5.59217 491.472L-49.1722 574.484" stroke="url(#paint55_linear_1_418)" stroke-width="2" stroke-linecap="round" stroke-linejoin="round"/>
<path opacity="0.57" d="M1260.38 123.58L1206.01 115.367C1151.65 107.153 1042.92 90.7262 934.188 148.22C825.459 205.715 716.729 337.13 608 337.13C499.271 337.13 390.542 205.715 281.813 222.141C173.084 238.568 64.3544 402.837 9.98977 484.972L-44.3748 567.106" stroke="url(#paint56_linear_1_418)" stroke-width="2" stroke-linecap="round" stroke-linejoin="round"/>
<path opacity="0.58" d="M1255.58 120.941L1201.61 112.815C1147.65 104.69 1039.72 88.4382 931.789 145.318C823.859 202.198 715.93 332.209 608 332.209C500.07 332.209 392.141 202.198 284.211 218.449C176.281 234.701 68.3516 397.215 14.3868 478.472L-39.5781 559.729" stroke="url(#paint57_linear_1_418)" stroke-width="2" stroke-linecap="round" stroke-linejoin="round"/>
<path opacity="0.59" d="M1250.78 118.302L1197.22 110.264C1143.65 102.226 1036.52 86.1501 929.39 142.416C822.26 198.681 715.13 327.289 608 327.289C500.87 327.289 393.739 198.681 286.609 214.757C179.479 230.833 72.3487 391.592 18.7836 471.972L-34.7815 552.351" stroke="url(#paint58_linear_1_418)" stroke-width="2" stroke-linecap="round" stroke-linejoin="round"/>
<path opacity="0.6" d="M1245.98 115.663L1192.82 107.713C1139.65 99.7624 1033.32 83.862 926.992 139.513C820.662 195.165 714.331 322.368 608 322.368C501.67 322.368 395.339 195.165 289.008 211.065C182.677 226.966 76.3466 385.97 23.1812 465.472L-29.9841 544.974" stroke="url(#paint59_linear_1_418)" stroke-width="2" stroke-linecap="round" stroke-linejoin="round"/>
<path opacity="0.61" d="M1241.19 113.024L1188.42 105.161C1135.66 97.2989 1030.12 81.574 924.594 136.611C819.062 191.648 713.531 317.447 608 317.447C502.469 317.447 396.937 191.648 291.406 207.373C185.875 223.098 80.3437 380.347 27.5781 458.972L-25.1875 537.596" stroke="url(#paint60_linear_1_418)" stroke-width="2" stroke-linecap="round" stroke-linejoin="round"/>
<path opacity="0.62" d="M1236.39 110.385L1184.02 102.61C1131.66 94.8353 1026.93 79.2859 922.195 133.709C817.463 188.132 712.732 312.527 608 312.527C503.268 312.527 398.536 188.132 293.804 203.681C189.073 219.231 84.3409 374.724 31.975 452.471L-20.3909 530.218" stroke="url(#paint61_linear_1_418)" stroke-width="2" stroke-linecap="round" stroke-linejoin="round"/>
<path opacity="0.63" d="M1231.59 107.746L1179.63 100.059C1127.66 92.3718 1023.73 76.9979 919.797 130.807C815.865 184.615 711.933 307.606 608 307.606C504.068 307.606 400.136 184.615 296.203 199.989C192.271 215.363 88.3387 369.102 36.3726 445.971L-15.5936 522.841" stroke="url(#paint62_linear_1_418)" stroke-width="2" stroke-linecap="round" stroke-linejoin="round"/>
<path opacity="0.64" d="M1226.8 105.107L1175.23 97.5074C1123.66 89.9082 1020.53 74.7098 917.398 127.904C814.266 181.099 711.133 302.686 608 302.686C504.867 302.686 401.734 181.099 298.602 196.297C195.469 211.495 92.336 363.479 40.7696 439.471L-10.7968 515.463" stroke="url(#paint63_linear_1_418)" stroke-width="2" stroke-linecap="round" stroke-linejoin="round"/>
<path opacity="0.65" d="M1222 102.468L1170.83 94.9561C1119.67 87.4447 1017.33 72.4218 915 125.002C812.666 177.582 710.333 297.765 608 297.765C505.666 297.765 403.333 177.582 301 192.605C198.666 207.628 96.3331 357.857 45.1664 432.971L-6.00022 508.086" stroke="url(#paint64_linear_1_418)" stroke-width="2" stroke-linecap="round" stroke-linejoin="round"/>
<path opacity="0.66" d="M1217.2 99.8285L1166.44 92.4048C1115.67 84.9811 1014.14 70.1337 912.602 122.1C811.068 174.065 709.534 292.845 608 292.845C506.466 292.845 404.933 174.065 303.399 188.913C201.865 203.76 100.331 352.234 49.564 426.471L-1.20288 500.708" stroke="url(#paint65_linear_1_418)" stroke-width="2" stroke-linecap="round" stroke-linejoin="round"/>
<path opacity="0.67" d="M1212.41 97.1895L1162.04 89.8535C1111.67 82.5176 1010.94 67.8457 910.203 119.197C809.469 170.549 708.734 287.924 608 287.924C507.266 287.924 406.531 170.549 305.797 185.221C205.062 199.893 104.328 346.612 53.9609 419.971L3.59373 493.331" stroke="url(#paint66_linear_1_418)" stroke-width="2" stroke-linecap="round" stroke-linejoin="round"/>
<path opacity="0.68" d="M1207.61 94.5504L1157.64 87.3022C1107.67 80.054 1007.74 65.5576 907.804 116.295C807.87 167.032 707.935 283.003 608 283.003C508.065 283.003 408.13 167.032 308.195 181.529C208.26 196.025 108.325 340.989 58.3579 413.471L8.3904 485.953" stroke="url(#paint67_linear_1_418)" stroke-width="2" stroke-linecap="round" stroke-linejoin="round"/>
<path opacity="0.69" d="M1202.81 91.9113L1153.25 84.7509C1103.68 77.5904 1004.54 63.2696 905.406 113.393C806.271 163.516 707.136 278.083 608 278.083C508.865 278.083 409.729 163.516 310.594 177.837C211.459 192.158 112.323 335.366 62.7555 406.971L13.1877 478.575" stroke="url(#paint68_linear_1_418)" stroke-width="2" stroke-linecap="round" stroke-linejoin="round"/>
<path opacity="0.7" d="M1198.02 89.2723L1148.85 82.1996C1099.68 75.1269 1001.34 60.9816 903.008 110.49C804.672 159.999 706.336 273.162 608 273.162C509.664 273.162 411.328 159.999 312.992 174.145C214.656 188.29 116.32 329.744 67.1523 400.471L17.9843 471.198" stroke="url(#paint69_linear_1_418)" stroke-width="2" stroke-linecap="round" stroke-linejoin="round"/>
<path opacity="0.71" d="M1193.22 86.6333L1144.45 79.6484C1095.68 72.6634 998.146 58.6935 900.609 107.588C803.073 156.483 705.536 268.242 608 268.242C510.463 268.242 412.927 156.483 315.39 170.453C217.854 184.423 120.317 324.121 71.5493 393.971L22.781 463.82" stroke="url(#paint70_linear_1_418)" stroke-width="2" stroke-linecap="round" stroke-linejoin="round"/>
<path opacity="0.72" d="M1188.42 83.994L1140.05 77.0968C1091.69 70.1996 994.948 56.4052 898.211 104.686C801.474 152.966 704.737 263.321 608 263.321C511.263 263.321 414.526 152.966 317.789 166.76C221.052 180.555 124.315 318.499 75.9469 387.47L27.5784 456.442" stroke="url(#paint71_linear_1_418)" stroke-width="2" stroke-linecap="round" stroke-linejoin="round"/>
<path opacity="0.73" d="M1183.62 81.3552L1135.66 74.5458C1087.69 67.7363 991.75 54.1174 895.812 101.784C799.875 149.45 703.937 258.401 608 258.401C512.062 258.401 416.125 149.45 320.187 163.068C224.25 176.687 128.312 312.876 80.3437 380.971L32.375 449.065" stroke="url(#paint72_linear_1_418)" stroke-width="2" stroke-linecap="round" stroke-linejoin="round"/>
<path opacity="0.74" d="M1178.83 78.7161L1131.26 71.9944C1083.69 65.2727 988.552 51.8293 893.414 98.8812C798.276 145.933 703.138 253.48 608 253.48C512.862 253.48 417.724 145.933 322.586 159.376C227.448 172.82 132.31 307.254 84.7407 374.471L37.1716 441.688" stroke="url(#paint73_linear_1_418)" stroke-width="2" stroke-linecap="round" stroke-linejoin="round"/>
<path opacity="0.75" d="M1174.03 76.0771L1126.86 69.4431C1079.69 62.8092 985.354 49.5413 891.016 95.9789C796.677 142.416 702.339 248.56 608 248.56C513.662 248.56 419.323 142.416 324.985 155.684C230.646 168.952 136.308 301.631 89.1383 367.97L41.969 434.31" stroke="url(#paint74_linear_1_418)" stroke-width="2" stroke-linecap="round" stroke-linejoin="round"/>
<path opacity="0.76" d="M1169.23 73.438L1122.46 66.8918C1075.7 60.3456 982.156 47.2532 888.617 93.0766C795.078 138.9 701.539 243.639 608 243.639C514.461 243.639 420.922 138.9 327.383 151.992C233.844 165.085 140.305 296.008 93.5351 361.47L46.7656 426.932" stroke="url(#paint75_linear_1_418)" stroke-width="2" stroke-linecap="round" stroke-linejoin="round"/>
<path opacity="0.77" d="M1164.44 70.799L1118.07 64.3405C1071.7 57.8821 978.958 44.9652 886.219 90.1743C793.479 135.383 700.739 238.718 608 238.718C515.26 238.718 422.521 135.383 329.781 148.3C237.041 161.217 144.302 290.386 97.9321 354.97L51.5623 419.555" stroke="url(#paint76_linear_1_418)" stroke-width="2" stroke-linecap="round" stroke-linejoin="round"/>
<path opacity="0.78" d="M1159.64 68.1599L1113.67 61.7892C1067.7 55.4185 975.761 42.6771 883.821 87.2719C791.88 131.867 699.94 233.798 608 233.798C516.06 233.798 424.12 131.867 332.18 144.608C240.24 157.35 148.3 284.763 102.33 348.47L56.3596 412.177" stroke="url(#paint77_linear_1_418)" stroke-width="2" stroke-linecap="round" stroke-linejoin="round"/>
<path opacity="0.79" d="M1154.84 65.5211L1109.27 59.2381C1063.7 52.9552 972.562 40.3893 881.422 84.3699C790.281 128.35 699.141 228.878 608 228.878C516.859 228.878 425.719 128.35 334.578 140.916C243.437 153.482 152.297 279.141 106.727 341.97L61.1562 404.8" stroke="url(#paint78_linear_1_418)" stroke-width="2" stroke-linecap="round" stroke-linejoin="round"/>
<path opacity="0.8" d="M1150.05 62.8818L1104.88 56.6866C1059.71 50.4914 969.364 38.101 879.023 81.4674C788.682 124.834 698.341 223.957 608 223.957C517.659 223.957 427.317 124.834 336.976 137.224C246.635 149.614 156.294 273.518 111.123 335.47L65.9529 397.422" stroke="url(#paint79_linear_1_418)" stroke-width="2" stroke-linecap="round" stroke-linejoin="round"/>
<path opacity="0.81" d="M1145.25 60.2427L1100.48 54.1353C1055.71 48.0278 966.167 35.8129 876.625 78.565C787.084 121.317 697.542 219.036 608 219.036C518.459 219.036 428.917 121.317 339.375 133.532C249.834 145.747 160.292 267.896 115.521 328.97L70.7502 390.044" stroke="url(#paint80_linear_1_418)" stroke-width="2" stroke-linecap="round" stroke-linejoin="round"/>
<path opacity="0.82" d="M1140.45 57.6037L1096.08 51.584C1051.71 45.5643 962.969 33.5249 874.227 75.6628C785.484 117.801 696.742 214.116 608 214.116C519.258 214.116 430.516 117.801 341.773 129.84C253.031 141.879 164.289 262.273 119.918 322.47L75.5469 382.667" stroke="url(#paint81_linear_1_418)" stroke-width="2" stroke-linecap="round" stroke-linejoin="round"/>
<path opacity="0.83" d="M1135.66 54.9646L1091.68 49.0327C1047.71 43.1008 959.771 31.2369 871.828 72.7604C783.885 114.284 695.942 209.195 608 209.195C520.057 209.195 432.114 114.284 344.172 126.148C256.229 138.012 168.286 256.65 124.315 315.97L80.3435 375.289" stroke="url(#paint82_linear_1_418)" stroke-width="2" stroke-linecap="round" stroke-linejoin="round"/>
<path opacity="0.84" d="M1130.86 52.3256L1087.29 46.4814C1043.72 40.6373 956.573 28.9489 869.43 69.8582C782.287 110.767 695.143 204.274 608 204.274C520.857 204.274 433.714 110.767 346.571 122.456C259.427 134.144 172.284 251.028 128.712 309.47L85.1409 367.912" stroke="url(#paint83_linear_1_418)" stroke-width="2" stroke-linecap="round" stroke-linejoin="round"/>
<path opacity="0.85" d="M1126.06 49.6865L1082.89 43.9301C1039.72 38.1737 953.375 26.6608 867.031 66.9559C780.688 107.251 694.344 199.354 608 199.354C521.656 199.354 435.313 107.251 348.969 118.764C262.625 130.277 176.281 245.405 133.109 302.97L89.9375 360.534" stroke="url(#paint84_linear_1_418)" stroke-width="2" stroke-linecap="round" stroke-linejoin="round"/>
<path opacity="0.86" d="M1121.27 47.0472L1078.49 41.3786C1035.72 35.7099 950.177 24.3725 864.633 64.0533C779.088 103.734 693.544 194.433 608 194.433C522.455 194.433 436.911 103.734 351.367 115.071C265.823 126.409 180.278 239.783 137.506 296.469L94.7341 353.156" stroke="url(#paint85_linear_1_418)" stroke-width="2" stroke-linecap="round" stroke-linejoin="round"/>
<path opacity="0.87" d="M1116.47 44.4084L1074.1 38.8275C1031.72 33.2466 946.979 22.0847 862.235 61.1513C777.49 100.218 692.745 189.513 608 189.513C523.255 189.513 438.511 100.218 353.766 111.38C269.021 122.542 184.276 234.16 141.904 289.97L99.5315 345.779" stroke="url(#paint86_linear_1_418)" stroke-width="2" stroke-linecap="round" stroke-linejoin="round"/>
<path opacity="0.88" d="M1111.67 41.7694L1069.7 36.2762C1027.73 30.783 943.781 19.7966 859.836 58.2489C775.891 96.7012 691.945 184.592 608 184.592C524.055 184.592 440.109 96.7012 356.164 107.688C272.219 118.674 188.273 228.538 146.301 283.469L104.328 338.401" stroke="url(#paint87_linear_1_418)" stroke-width="2" stroke-linecap="round" stroke-linejoin="round"/>
<path opacity="0.89" d="M1106.87 39.1303L1065.3 33.7249C1023.73 28.3194 940.583 17.5086 857.437 55.3466C774.291 93.1846 691.146 179.672 608 179.672C524.854 179.672 441.708 93.1846 358.562 103.996C275.416 114.806 192.271 222.915 150.698 276.969L109.125 331.024" stroke="url(#paint88_linear_1_418)" stroke-width="2" stroke-linecap="round" stroke-linejoin="round"/>
<path opacity="0.9" d="M1102.08 36.4913L1060.91 31.1736C1019.73 25.8559 937.386 15.2206 855.039 52.4443C772.693 89.6681 690.347 174.751 608 174.751C525.654 174.751 443.308 89.6681 360.961 100.303C278.615 110.939 196.268 217.293 155.095 270.469L113.922 323.646" stroke="url(#paint89_linear_1_418)" stroke-width="2" stroke-linecap="round" stroke-linejoin="round"/>
<path opacity="0.91" d="M1097.28 33.8522L1056.51 28.6223C1015.73 23.3923 934.188 12.9325 852.641 49.542C771.094 86.1515 689.547 169.83 608 169.83C526.453 169.83 444.906 86.1515 363.359 96.6114C281.813 107.071 200.266 211.67 159.492 263.969L118.719 316.269" stroke="url(#paint90_linear_1_418)" stroke-width="2" stroke-linecap="round" stroke-linejoin="round"/>
<path opacity="0.92" d="M1092.48 31.2131L1052.11 26.071C1011.74 20.9288 930.989 10.6444 850.242 46.6397C769.495 82.635 688.747 164.91 608 164.91C527.252 164.91 446.505 82.635 365.758 92.9193C285.01 103.204 204.263 206.047 163.889 257.469L123.515 308.891" stroke="url(#paint91_linear_1_418)" stroke-width="2" stroke-linecap="round" stroke-linejoin="round"/>
<path opacity="0.93" d="M1087.69 28.5744L1047.71 23.5199C1007.74 18.4655 927.792 8.35664 847.844 43.7377C767.896 79.1187 687.948 159.99 608 159.99C528.052 159.99 448.104 79.1187 368.156 89.2275C288.209 99.3364 208.261 200.425 168.287 250.969L128.313 301.514" stroke="url(#paint92_linear_1_418)" stroke-width="2" stroke-linecap="round" stroke-linejoin="round"/>
<path opacity="0.94" d="M1082.89 25.935L1043.32 20.9683C1003.74 16.0017 924.594 6.0683 845.445 40.8351C766.297 75.6018 687.148 155.069 608 155.069C528.852 155.069 449.703 75.6018 370.555 85.5352C291.406 95.4686 212.258 194.802 172.684 244.469L133.109 294.136" stroke="url(#paint93_linear_1_418)" stroke-width="2" stroke-linecap="round" stroke-linejoin="round"/>
<path opacity="0.95" d="M1078.09 23.296L1038.92 18.4171C999.745 13.5381 921.396 3.78028 843.047 37.9328C764.698 72.0853 686.349 150.148 608 150.148C529.651 150.148 451.302 72.0853 372.953 81.8432C294.604 91.601 216.255 189.18 177.08 237.969L137.906 286.758" stroke="url(#paint94_linear_1_418)" stroke-width="2" stroke-linecap="round" stroke-linejoin="round"/>
<path opacity="0.96" d="M1073.3 20.6569L1034.52 15.8658C995.748 11.0746 918.198 1.49222 840.649 35.0305C763.099 68.5687 685.55 145.228 608 145.228C530.451 145.228 452.901 68.5687 375.352 78.1511C297.802 87.7335 220.253 183.557 181.478 231.469L142.703 279.381" stroke="url(#paint95_linear_1_418)" stroke-width="2" stroke-linecap="round" stroke-linejoin="round"/>
<path opacity="0.97" d="M1068.5 18.0179L1030.13 13.3145C991.75 8.61106 915 -0.795796 838.25 32.1282C761.5 65.0522 684.75 140.307 608 140.307C531.25 140.307 454.5 65.0522 377.75 74.4591C301 83.8659 224.25 177.935 185.875 224.969L147.5 272.003" stroke="url(#paint96_linear_1_418)" stroke-width="2" stroke-linecap="round" stroke-linejoin="round"/>
<path opacity="0.98" d="M1063.7 15.3788L1025.73 10.7632C987.752 6.14748 911.802 -3.08387 835.851 29.2259C759.901 61.5356 683.95 135.386 608 135.386C532.049 135.386 456.099 61.5356 380.148 70.767C304.198 79.9983 228.247 172.312 190.272 218.469L152.297 264.625" stroke="url(#paint97_linear_1_418)" stroke-width="2" stroke-linecap="round" stroke-linejoin="round"/>
<path opacity="0.99" d="M1058.91 12.7398L1021.33 8.21187C983.755 3.68394 908.604 -5.37191 833.453 26.3236C758.302 58.0191 683.151 130.466 608 130.466C532.849 130.466 457.698 58.0191 382.547 67.0749C307.396 76.1308 232.245 166.689 194.669 211.969L157.094 257.248" stroke="url(#paint98_linear_1_418)" stroke-width="2" stroke-linecap="round" stroke-linejoin="round"/>
<path d="M1054.11 10.1005L1016.93 5.66034C979.758 1.22016 905.406 -7.6602 831.055 23.421C756.703 54.5023 682.352 125.545 608 125.545C533.648 125.545 459.297 54.5023 384.945 63.3826C310.594 72.263 236.242 161.067 199.066 205.468L161.891 249.87" stroke="url(#paint99_linear_1_418)" stroke-width="2" stroke-linecap="round" stroke-linejoin="round"/>
</g>
<defs>
<linearGradient id="paint0_linear_1_418" x1="608" y1="980.251" x2="608" y2="244.46" gradientUnits="userSpaceOnUse">
<stop stop-color="#BC2448" stop-opacity="0"/>
<stop offset="0.994792" stop-color="#BC244A"/>
</linearGradient>
<linearGradient id="paint1_linear_1_418" x1="608" y1="972.873" x2="608" y2="242.001" gradientUnits="userSpaceOnUse">
<stop stop-color="#BC2448" stop-opacity="0"/>
<stop offset="0.994792" stop-color="#BC244A"/>
</linearGradient>
<linearGradient id="paint2_linear_1_418" x1="608" y1="965.496" x2="608" y2="239.542" gradientUnits="userSpaceOnUse">
<stop stop-color="#BC2448" stop-opacity="0"/>
<stop offset="0.994792" stop-color="#BC244A"/>
</linearGradient>
<linearGradient id="paint3_linear_1_418" x1="608" y1="958.118" x2="608" y2="237.083" gradientUnits="userSpaceOnUse">
<stop stop-color="#BC2448" stop-opacity="0"/>
<stop offset="0.994792" stop-color="#BC244A"/>
</linearGradient>
<linearGradient id="paint4_linear_1_418" x1="608" y1="950.74" x2="608" y2="234.623" gradientUnits="userSpaceOnUse">
<stop stop-color="#BC2448" stop-opacity="0"/>
<stop offset="0.994792" stop-color="#BC244A"/>
</linearGradient>
<linearGradient id="paint5_linear_1_418" x1="608" y1="943.363" x2="608" y2="232.164" gradientUnits="userSpaceOnUse">
<stop stop-color="#BC2448" stop-opacity="0"/>
<stop offset="0.994792" stop-color="#BC244A"/>
</linearGradient>
<linearGradient id="paint6_linear_1_418" x1="608" y1="935.985" x2="608" y2="229.705" gradientUnits="userSpaceOnUse">
<stop stop-color="#BC2448" stop-opacity="0"/>
<stop offset="0.994792" stop-color="#BC244A"/>
</linearGradient>
<linearGradient id="paint7_linear_1_418" x1="608" y1="928.607" x2="608" y2="227.245" gradientUnits="userSpaceOnUse">
<stop stop-color="#BC2448" stop-opacity="0"/>
<stop offset="0.994792" stop-color="#BC244A"/>
</linearGradient>
<linearGradient id="paint8_linear_1_418" x1="608" y1="921.23" x2="608" y2="224.787" gradientUnits="userSpaceOnUse">
<stop stop-color="#BC2448" stop-opacity="0"/>
<stop offset="0.994792" stop-color="#BC244A"/>
</linearGradient>
<linearGradient id="paint9_linear_1_418" x1="608" y1="913.853" x2="608" y2="222.327" gradientUnits="userSpaceOnUse">
<stop stop-color="#BC2448" stop-opacity="0"/>
<stop offset="0.994792" stop-color="#BC244A"/>
</linearGradient>
<linearGradient id="paint10_linear_1_418" x1="608" y1="906.476" x2="608" y2="219.869" gradientUnits="userSpaceOnUse">
<stop stop-color="#BC2448" stop-opacity="0"/>
<stop offset="0.994792" stop-color="#BC244A"/>
</linearGradient>
<linearGradient id="paint11_linear_1_418" x1="608" y1="899.098" x2="608" y2="217.409" gradientUnits="userSpaceOnUse">
<stop stop-color="#BC2448" stop-opacity="0"/>
<stop offset="0.994792" stop-color="#BC244A"/>
</linearGradient>
<linearGradient id="paint12_linear_1_418" x1="608" y1="891.72" x2="608" y2="214.95" gradientUnits="userSpaceOnUse">
<stop stop-color="#BC2448" stop-opacity="0"/>
<stop offset="0.994792" stop-color="#BC244A"/>
</linearGradient>
<linearGradient id="paint13_linear_1_418" x1="608" y1="884.343" x2="608" y2="212.491" gradientUnits="userSpaceOnUse">
<stop stop-color="#BC2448" stop-opacity="0"/>
<stop offset="0.994792" stop-color="#BC244A"/>
</linearGradient>
<linearGradient id="paint14_linear_1_418" x1="608" y1="876.965" x2="608" y2="210.031" gradientUnits="userSpaceOnUse">
<stop stop-color="#BC2448" stop-opacity="0"/>
<stop offset="0.994792" stop-color="#BC244A"/>
</linearGradient>
<linearGradient id="paint15_linear_1_418" x1="608" y1="869.587" x2="608" y2="207.572" gradientUnits="userSpaceOnUse">
<stop stop-color="#BC2448" stop-opacity="0"/>
<stop offset="0.994792" stop-color="#BC244A"/>
</linearGradient>
<linearGradient id="paint16_linear_1_418" x1="608" y1="862.21" x2="608" y2="205.113" gradientUnits="userSpaceOnUse">
<stop stop-color="#BC2448" stop-opacity="0"/>
<stop offset="0.994792" stop-color="#BC244A"/>
</linearGradient>
<linearGradient id="paint17_linear_1_418" x1="608" y1="854.832" x2="608" y2="202.654" gradientUnits="userSpaceOnUse">
<stop stop-color="#BC2448" stop-opacity="0"/>
<stop offset="0.994792" stop-color="#BC244A"/>
</linearGradient>
<linearGradient id="paint18_linear_1_418" x1="608" y1="847.454" x2="608" y2="200.194" gradientUnits="userSpaceOnUse">
<stop stop-color="#BC2448" stop-opacity="0"/>
<stop offset="0.994792" stop-color="#BC244A"/>
</linearGradient>
<linearGradient id="paint19_linear_1_418" x1="608" y1="840.077" x2="608" y2="197.735" gradientUnits="userSpaceOnUse">
<stop stop-color="#BC2448" stop-opacity="0"/>
<stop offset="0.994792" stop-color="#BC244A"/>
</linearGradient>
<linearGradient id="paint20_linear_1_418" x1="608" y1="832.699" x2="608" y2="195.276" gradientUnits="userSpaceOnUse">
<stop stop-color="#BC2448" stop-opacity="0"/>
<stop offset="0.994792" stop-color="#BC244A"/>
</linearGradient>
<linearGradient id="paint21_linear_1_418" x1="608" y1="825.321" x2="608" y2="192.817" gradientUnits="userSpaceOnUse">
<stop stop-color="#BC2448" stop-opacity="0"/>
<stop offset="0.994792" stop-color="#BC244A"/>
</linearGradient>
<linearGradient id="paint22_linear_1_418" x1="608" y1="817.944" x2="608" y2="190.358" gradientUnits="userSpaceOnUse">
<stop stop-color="#BC2448" stop-opacity="0"/>
<stop offset="0.994792" stop-color="#BC244A"/>
</linearGradient>
<linearGradient id="paint23_linear_1_418" x1="608" y1="810.567" x2="608" y2="187.899" gradientUnits="userSpaceOnUse">
<stop stop-color="#BC2448" stop-opacity="0"/>
<stop offset="0.994792" stop-color="#BC244A"/>
</linearGradient>
<linearGradient id="paint24_linear_1_418" x1="608" y1="803.189" x2="608" y2="185.439" gradientUnits="userSpaceOnUse">
<stop stop-color="#BC2448" stop-opacity="0"/>
<stop offset="0.994792" stop-color="#BC244A"/>
</linearGradient>
<linearGradient id="paint25_linear_1_418" x1="608" y1="795.811" x2="608" y2="182.98" gradientUnits="userSpaceOnUse">
<stop stop-color="#BC2448" stop-opacity="0"/>
<stop offset="0.994792" stop-color="#BC244A"/>
</linearGradient>
<linearGradient id="paint26_linear_1_418" x1="608" y1="788.434" x2="608" y2="180.521" gradientUnits="userSpaceOnUse">
<stop stop-color="#BC2448" stop-opacity="0"/>
<stop offset="0.994792" stop-color="#BC244A"/>
</linearGradient>
<linearGradient id="paint27_linear_1_418" x1="608" y1="781.056" x2="608" y2="178.062" gradientUnits="userSpaceOnUse">
<stop stop-color="#BC2448" stop-opacity="0"/>
<stop offset="0.994792" stop-color="#BC244A"/>
</linearGradient>
<linearGradient id="paint28_linear_1_418" x1="608" y1="773.679" x2="608" y2="175.603" gradientUnits="userSpaceOnUse">
<stop stop-color="#BC2448" stop-opacity="0"/>
<stop offset="0.994792" stop-color="#BC244A"/>
</linearGradient>
<linearGradient id="paint29_linear_1_418" x1="608" y1="766.301" x2="608" y2="173.143" gradientUnits="userSpaceOnUse">
<stop stop-color="#BC2448" stop-opacity="0"/>
<stop offset="0.994792" stop-color="#BC244A"/>
</linearGradient>
<linearGradient id="paint30_linear_1_418" x1="608" y1="758.924" x2="608" y2="170.684" gradientUnits="userSpaceOnUse">
<stop stop-color="#BC2448" stop-opacity="0"/>
<stop offset="0.994792" stop-color="#BC244A"/>
</linearGradient>
<linearGradient id="paint31_linear_1_418" x1="608" y1="751.546" x2="608" y2="168.225" gradientUnits="userSpaceOnUse">
<stop stop-color="#BC2448" stop-opacity="0"/>
<stop offset="0.994792" stop-color="#BC244A"/>
</linearGradient>
<linearGradient id="paint32_linear_1_418" x1="608" y1="744.168" x2="608" y2="165.766" gradientUnits="userSpaceOnUse">
<stop stop-color="#BC2448" stop-opacity="0"/>
<stop offset="0.994792" stop-color="#BC244A"/>
</linearGradient>
<linearGradient id="paint33_linear_1_418" x1="608" y1="736.791" x2="608" y2="163.307" gradientUnits="userSpaceOnUse">
<stop stop-color="#BC2448" stop-opacity="0"/>
<stop offset="0.994792" stop-color="#BC244A"/>
</linearGradient>
<linearGradient id="paint34_linear_1_418" x1="608" y1="729.413" x2="608" y2="160.848" gradientUnits="userSpaceOnUse">
<stop stop-color="#BC2448" stop-opacity="0"/>
<stop offset="0.994792" stop-color="#BC244A"/>
</linearGradient>
<linearGradient id="paint35_linear_1_418" x1="608" y1="722.036" x2="608" y2="158.388" gradientUnits="userSpaceOnUse">
<stop stop-color="#BC2448" stop-opacity="0"/>
<stop offset="0.994792" stop-color="#BC244A"/>
</linearGradient>
<linearGradient id="paint36_linear_1_418" x1="608" y1="714.658" x2="608" y2="155.929" gradientUnits="userSpaceOnUse">
<stop stop-color="#BC2448" stop-opacity="0"/>
<stop offset="0.994792" stop-color="#BC244A"/>
</linearGradient>
<linearGradient id="paint37_linear_1_418" x1="608" y1="707.28" x2="608" y2="153.47" gradientUnits="userSpaceOnUse">
<stop stop-color="#BC2448" stop-opacity="0"/>
<stop offset="0.994792" stop-color="#BC244A"/>
</linearGradient>
<linearGradient id="paint38_linear_1_418" x1="608" y1="699.903" x2="608" y2="151.011" gradientUnits="userSpaceOnUse">
<stop stop-color="#BC2448" stop-opacity="0"/>
<stop offset="0.994792" stop-color="#BC244A"/>
</linearGradient>
<linearGradient id="paint39_linear_1_418" x1="608" y1="692.525" x2="608" y2="148.552" gradientUnits="userSpaceOnUse">
<stop stop-color="#BC2448" stop-opacity="0"/>
<stop offset="0.994792" stop-color="#BC244A"/>
</linearGradient>
<linearGradient id="paint40_linear_1_418" x1="608" y1="685.148" x2="608" y2="146.092" gradientUnits="userSpaceOnUse">
<stop stop-color="#BC2448" stop-opacity="0"/>
<stop offset="0.994792" stop-color="#BC244A"/>
</linearGradient>
<linearGradient id="paint41_linear_1_418" x1="608" y1="677.77" x2="608" y2="143.633" gradientUnits="userSpaceOnUse">
<stop stop-color="#BC2448" stop-opacity="0"/>
<stop offset="0.994792" stop-color="#BC244A"/>
</linearGradient>
<linearGradient id="paint42_linear_1_418" x1="608" y1="670.393" x2="608" y2="141.174" gradientUnits="userSpaceOnUse">
<stop stop-color="#BC2448" stop-opacity="0"/>
<stop offset="0.994792" stop-color="#BC244A"/>
</linearGradient>
<linearGradient id="paint43_linear_1_418" x1="608" y1="663.015" x2="608" y2="138.715" gradientUnits="userSpaceOnUse">
<stop stop-color="#BC2448" stop-opacity="0"/>
<stop offset="0.994792" stop-color="#BC244A"/>
</linearGradient>
<linearGradient id="paint44_linear_1_418" x1="608" y1="655.637" x2="608" y2="136.256" gradientUnits="userSpaceOnUse">
<stop stop-color="#BC2448" stop-opacity="0"/>
<stop offset="0.994792" stop-color="#BC244A"/>
</linearGradient>
<linearGradient id="paint45_linear_1_418" x1="608" y1="648.26" x2="608" y2="133.796" gradientUnits="userSpaceOnUse">
<stop stop-color="#BC2448" stop-opacity="0"/>
<stop offset="0.994792" stop-color="#BC244A"/>
</linearGradient>
<linearGradient id="paint46_linear_1_418" x1="608" y1="640.882" x2="608" y2="131.337" gradientUnits="userSpaceOnUse">
<stop stop-color="#BC2448" stop-opacity="0"/>
<stop offset="0.994792" stop-color="#BC244A"/>
</linearGradient>
<linearGradient id="paint47_linear_1_418" x1="608" y1="633.505" x2="608" y2="128.878" gradientUnits="userSpaceOnUse">
<stop stop-color="#BC2448" stop-opacity="0"/>
<stop offset="0.994792" stop-color="#BC244A"/>
</linearGradient>
<linearGradient id="paint48_linear_1_418" x1="608" y1="626.127" x2="608" y2="126.419" gradientUnits="userSpaceOnUse">
<stop stop-color="#BC2448" stop-opacity="0"/>
<stop offset="0.994792" stop-color="#BC244A"/>
</linearGradient>
<linearGradient id="paint49_linear_1_418" x1="608" y1="618.749" x2="608" y2="123.96" gradientUnits="userSpaceOnUse">
<stop stop-color="#BC2448" stop-opacity="0"/>
<stop offset="0.994792" stop-color="#BC244A"/>
</linearGradient>
<linearGradient id="paint50_linear_1_418" x1="608" y1="611.372" x2="608" y2="121.5" gradientUnits="userSpaceOnUse">
<stop stop-color="#BC2448" stop-opacity="0"/>
<stop offset="0.994792" stop-color="#BC244A"/>
</linearGradient>
<linearGradient id="paint51_linear_1_418" x1="608" y1="603.994" x2="608" y2="119.041" gradientUnits="userSpaceOnUse">
<stop stop-color="#BC2448" stop-opacity="0"/>
<stop offset="0.994792" stop-color="#BC244A"/>
</linearGradient>
<linearGradient id="paint52_linear_1_418" x1="608" y1="596.617" x2="608" y2="116.582" gradientUnits="userSpaceOnUse">
<stop stop-color="#BC2448" stop-opacity="0"/>
<stop offset="0.994792" stop-color="#BC244A"/>
</linearGradient>
<linearGradient id="paint53_linear_1_418" x1="608" y1="589.239" x2="608" y2="114.123" gradientUnits="userSpaceOnUse">
<stop stop-color="#BC2448" stop-opacity="0"/>
<stop offset="0.994792" stop-color="#BC244A"/>
</linearGradient>
<linearGradient id="paint54_linear_1_418" x1="608" y1="581.862" x2="608" y2="111.664" gradientUnits="userSpaceOnUse">
<stop stop-color="#BC2448" stop-opacity="0"/>
<stop offset="0.994792" stop-color="#BC244A"/>
</linearGradient>
<linearGradient id="paint55_linear_1_418" x1="608" y1="574.484" x2="608" y2="109.204" gradientUnits="userSpaceOnUse">
<stop stop-color="#BC2448" stop-opacity="0"/>
<stop offset="0.994792" stop-color="#BC244A"/>
</linearGradient>
<linearGradient id="paint56_linear_1_418" x1="608" y1="567.106" x2="608" y2="106.745" gradientUnits="userSpaceOnUse">
<stop stop-color="#BC2448" stop-opacity="0"/>
<stop offset="0.994792" stop-color="#BC244A"/>
</linearGradient>
<linearGradient id="paint57_linear_1_418" x1="608" y1="559.729" x2="608" y2="104.286" gradientUnits="userSpaceOnUse">
<stop stop-color="#BC2448" stop-opacity="0"/>
<stop offset="0.994792" stop-color="#BC244A"/>
</linearGradient>
<linearGradient id="paint58_linear_1_418" x1="608" y1="552.351" x2="608" y2="101.827" gradientUnits="userSpaceOnUse">
<stop stop-color="#BC2448" stop-opacity="0"/>
<stop offset="0.994792" stop-color="#BC244A"/>
</linearGradient>
<linearGradient id="paint59_linear_1_418" x1="608" y1="544.974" x2="608" y2="99.3677" gradientUnits="userSpaceOnUse">
<stop stop-color="#BC2448" stop-opacity="0"/>
<stop offset="0.994792" stop-color="#BC244A"/>
</linearGradient>
<linearGradient id="paint60_linear_1_418" x1="608" y1="537.596" x2="608" y2="96.9085" gradientUnits="userSpaceOnUse">
<stop stop-color="#BC2448" stop-opacity="0"/>
<stop offset="0.994792" stop-color="#BC244A"/>
</linearGradient>
<linearGradient id="paint61_linear_1_418" x1="608" y1="530.218" x2="608" y2="94.4493" gradientUnits="userSpaceOnUse">
<stop stop-color="#BC2448" stop-opacity="0"/>
<stop offset="0.994792" stop-color="#BC244A"/>
</linearGradient>
<linearGradient id="paint62_linear_1_418" x1="608" y1="522.841" x2="608" y2="91.9901" gradientUnits="userSpaceOnUse">
<stop stop-color="#BC2448" stop-opacity="0"/>
<stop offset="0.994792" stop-color="#BC244A"/>
</linearGradient>
<linearGradient id="paint63_linear_1_418" x1="608" y1="515.463" x2="608" y2="89.5309" gradientUnits="userSpaceOnUse">
<stop stop-color="#BC2448" stop-opacity="0"/>
<stop offset="0.994792" stop-color="#BC244A"/>
</linearGradient>
<linearGradient id="paint64_linear_1_418" x1="608" y1="508.086" x2="608" y2="87.0717" gradientUnits="userSpaceOnUse">
<stop stop-color="#BC2448" stop-opacity="0"/>
<stop offset="0.994792" stop-color="#BC244A"/>
</linearGradient>
<linearGradient id="paint65_linear_1_418" x1="608" y1="500.708" x2="608" y2="84.6125" gradientUnits="userSpaceOnUse">
<stop stop-color="#BC2448" stop-opacity="0"/>
<stop offset="0.994792" stop-color="#BC244A"/>
</linearGradient>
<linearGradient id="paint66_linear_1_418" x1="608" y1="493.331" x2="608" y2="82.1533" gradientUnits="userSpaceOnUse">
<stop stop-color="#BC2448" stop-opacity="0"/>
<stop offset="0.994792" stop-color="#BC244A"/>
</linearGradient>
<linearGradient id="paint67_linear_1_418" x1="608" y1="485.953" x2="608" y2="79.6941" gradientUnits="userSpaceOnUse">
<stop stop-color="#BC2448" stop-opacity="0"/>
<stop offset="0.994792" stop-color="#BC244A"/>
</linearGradient>
<linearGradient id="paint68_linear_1_418" x1="608" y1="478.575" x2="608" y2="77.2349" gradientUnits="userSpaceOnUse">
<stop stop-color="#BC2448" stop-opacity="0"/>
<stop offset="0.994792" stop-color="#BC244A"/>
</linearGradient>
<linearGradient id="paint69_linear_1_418" x1="608" y1="471.198" x2="608" y2="74.7758" gradientUnits="userSpaceOnUse">
<stop stop-color="#BC2448" stop-opacity="0"/>
<stop offset="0.994792" stop-color="#BC244A"/>
</linearGradient>
<linearGradient id="paint70_linear_1_418" x1="608" y1="463.82" x2="608" y2="72.3166" gradientUnits="userSpaceOnUse">
<stop stop-color="#BC2448" stop-opacity="0"/>
<stop offset="0.994792" stop-color="#BC244A"/>
</linearGradient>
<linearGradient id="paint71_linear_1_418" x1="608" y1="456.442" x2="608" y2="69.8571" gradientUnits="userSpaceOnUse">
<stop stop-color="#BC2448" stop-opacity="0"/>
<stop offset="0.994792" stop-color="#BC244A"/>
</linearGradient>
<linearGradient id="paint72_linear_1_418" x1="608" y1="449.065" x2="608" y2="67.3982" gradientUnits="userSpaceOnUse">
<stop stop-color="#BC2448" stop-opacity="0"/>
<stop offset="0.994792" stop-color="#BC244A"/>
</linearGradient>
<linearGradient id="paint73_linear_1_418" x1="608" y1="441.688" x2="608" y2="64.939" gradientUnits="userSpaceOnUse">
<stop stop-color="#BC2448" stop-opacity="0"/>
<stop offset="0.994792" stop-color="#BC244A"/>
</linearGradient>
<linearGradient id="paint74_linear_1_418" x1="608" y1="434.31" x2="608" y2="62.4797" gradientUnits="userSpaceOnUse">
<stop stop-color="#BC2448" stop-opacity="0"/>
<stop offset="0.994792" stop-color="#BC244A"/>
</linearGradient>
<linearGradient id="paint75_linear_1_418" x1="608" y1="426.932" x2="608" y2="60.0206" gradientUnits="userSpaceOnUse">
<stop stop-color="#BC2448" stop-opacity="0"/>
<stop offset="0.994792" stop-color="#BC244A"/>
</linearGradient>
<linearGradient id="paint76_linear_1_418" x1="608" y1="419.555" x2="608" y2="57.5614" gradientUnits="userSpaceOnUse">
<stop stop-color="#BC2448" stop-opacity="0"/>
<stop offset="0.994792" stop-color="#BC244A"/>
</linearGradient>
<linearGradient id="paint77_linear_1_418" x1="608" y1="412.177" x2="608" y2="55.1021" gradientUnits="userSpaceOnUse">
<stop stop-color="#BC2448" stop-opacity="0"/>
<stop offset="0.994792" stop-color="#BC244A"/>
</linearGradient>
<linearGradient id="paint78_linear_1_418" x1="608" y1="404.8" x2="608" y2="52.6432" gradientUnits="userSpaceOnUse">
<stop stop-color="#BC2448" stop-opacity="0"/>
<stop offset="0.994792" stop-color="#BC244A"/>
</linearGradient>
<linearGradient id="paint79_linear_1_418" x1="608" y1="397.422" x2="608" y2="50.1838" gradientUnits="userSpaceOnUse">
<stop stop-color="#BC2448" stop-opacity="0"/>
<stop offset="0.994792" stop-color="#BC244A"/>
</linearGradient>
<linearGradient id="paint80_linear_1_418" x1="608" y1="390.044" x2="608" y2="47.7245" gradientUnits="userSpaceOnUse">
<stop stop-color="#BC2448" stop-opacity="0"/>
<stop offset="0.994792" stop-color="#BC244A"/>
</linearGradient>
<linearGradient id="paint81_linear_1_418" x1="608" y1="382.667" x2="608" y2="45.2654" gradientUnits="userSpaceOnUse">
<stop stop-color="#BC2448" stop-opacity="0"/>
<stop offset="0.994792" stop-color="#BC244A"/>
</linearGradient>
<linearGradient id="paint82_linear_1_418" x1="608" y1="375.289" x2="608" y2="42.8062" gradientUnits="userSpaceOnUse">
<stop stop-color="#BC2448" stop-opacity="0"/>
<stop offset="0.994792" stop-color="#BC244A"/>
</linearGradient>
<linearGradient id="paint83_linear_1_418" x1="608" y1="367.912" x2="608" y2="40.347" gradientUnits="userSpaceOnUse">
<stop stop-color="#BC2448" stop-opacity="0"/>
<stop offset="0.994792" stop-color="#BC244A"/>
</linearGradient>
<linearGradient id="paint84_linear_1_418" x1="608" y1="360.534" x2="608" y2="37.8878" gradientUnits="userSpaceOnUse">
<stop stop-color="#BC2448" stop-opacity="0"/>
<stop offset="0.994792" stop-color="#BC244A"/>
</linearGradient>
<linearGradient id="paint85_linear_1_418" x1="608" y1="353.156" x2="608" y2="35.4284" gradientUnits="userSpaceOnUse">
<stop stop-color="#BC2448" stop-opacity="0"/>
<stop offset="0.994792" stop-color="#BC244A"/>
</linearGradient>
<linearGradient id="paint86_linear_1_418" x1="608" y1="345.779" x2="608" y2="32.9695" gradientUnits="userSpaceOnUse">
<stop stop-color="#BC2448" stop-opacity="0"/>
<stop offset="0.994792" stop-color="#BC244A"/>
</linearGradient>
<linearGradient id="paint87_linear_1_418" x1="608" y1="338.401" x2="608" y2="30.5102" gradientUnits="userSpaceOnUse">
<stop stop-color="#BC2448" stop-opacity="0"/>
<stop offset="0.994792" stop-color="#BC244A"/>
</linearGradient>
<linearGradient id="paint88_linear_1_418" x1="608" y1="331.024" x2="608" y2="28.051" gradientUnits="userSpaceOnUse">
<stop stop-color="#BC2448" stop-opacity="0"/>
<stop offset="0.994792" stop-color="#BC244A"/>
</linearGradient>
<linearGradient id="paint89_linear_1_418" x1="608" y1="323.646" x2="608" y2="25.5919" gradientUnits="userSpaceOnUse">
<stop stop-color="#BC2448" stop-opacity="0"/>
<stop offset="0.994792" stop-color="#BC244A"/>
</linearGradient>
<linearGradient id="paint90_linear_1_418" x1="608" y1="316.269" x2="608" y2="23.1326" gradientUnits="userSpaceOnUse">
<stop stop-color="#BC2448" stop-opacity="0"/>
<stop offset="0.994792" stop-color="#BC244A"/>
</linearGradient>
<linearGradient id="paint91_linear_1_418" x1="608" y1="308.891" x2="608" y2="20.6734" gradientUnits="userSpaceOnUse">
<stop stop-color="#BC2448" stop-opacity="0"/>
<stop offset="0.994792" stop-color="#BC244A"/>
</linearGradient>
<linearGradient id="paint92_linear_1_418" x1="608" y1="301.514" x2="608" y2="18.2145" gradientUnits="userSpaceOnUse">
<stop stop-color="#BC2448" stop-opacity="0"/>
<stop offset="0.994792" stop-color="#BC244A"/>
</linearGradient>
<linearGradient id="paint93_linear_1_418" x1="608" y1="294.136" x2="608" y2="15.755" gradientUnits="userSpaceOnUse">
<stop stop-color="#BC2448" stop-opacity="0"/>
<stop offset="0.994792" stop-color="#BC244A"/>
</linearGradient>
<linearGradient id="paint94_linear_1_418" x1="608" y1="286.758" x2="608" y2="13.2959" gradientUnits="userSpaceOnUse">
<stop stop-color="#BC2448" stop-opacity="0"/>
<stop offset="0.994792" stop-color="#BC244A"/>
</linearGradient>
<linearGradient id="paint95_linear_1_418" x1="608" y1="279.381" x2="608" y2="10.8367" gradientUnits="userSpaceOnUse">
<stop stop-color="#BC2448" stop-opacity="0"/>
<stop offset="0.994792" stop-color="#BC244A"/>
</linearGradient>
<linearGradient id="paint96_linear_1_418" x1="608" y1="272.003" x2="608" y2="8.3775" gradientUnits="userSpaceOnUse">
<stop stop-color="#BC2448" stop-opacity="0"/>
<stop offset="0.994792" stop-color="#BC244A"/>
</linearGradient>
<linearGradient id="paint97_linear_1_418" x1="608" y1="264.625" x2="608" y2="5.91827" gradientUnits="userSpaceOnUse">
<stop stop-color="#BC2448" stop-opacity="0"/>
<stop offset="0.994792" stop-color="#BC244A"/>
</linearGradient>
<linearGradient id="paint98_linear_1_418" x1="608" y1="257.248" x2="608" y2="3.45909" gradientUnits="userSpaceOnUse">
<stop stop-color="#BC2448" stop-opacity="0"/>
<stop offset="0.994792" stop-color="#BC244A"/>
</linearGradient>
<linearGradient id="paint99_linear_1_418" x1="608" y1="249.87" x2="608" y2="0.99968" gradientUnits="userSpaceOnUse">
<stop stop-color="#BC2448" stop-opacity="0"/>
<stop offset="0.994792" stop-color="#BC244A"/>
</linearGradient>
</defs>
</svg>
