<svg width="20" height="21" viewBox="0 0 20 21" fill="none" xmlns="http://www.w3.org/2000/svg">
<path fill-rule="evenodd" clip-rule="evenodd" d="M10.0001 7.58335C10.2135 7.58335 10.4268 7.66501 10.5893 7.82751L13.9226 11.1608C14.2485 11.4867 14.2485 12.0133 13.9226 12.3392C13.5968 12.665 13.0701 12.665 12.7443 12.3392L9.99012 9.58501L7.24595 12.235C6.91345 12.5542 6.38762 12.545 6.06762 12.2142C5.74762 11.8833 5.75678 11.355 6.08762 11.0358L9.42095 7.81751C9.58345 7.66085 9.79178 7.58335 10.0001 7.58335Z" fill="#BC244A"/>
<mask id="mask0_5_386" style="mask-type:alpha" maskUnits="userSpaceOnUse" x="5" y="7" width="10" height="6">
<path fill-rule="evenodd" clip-rule="evenodd" d="M10.0001 7.58335C10.2135 7.58335 10.4268 7.66501 10.5893 7.82751L13.9226 11.1608C14.2485 11.4867 14.2485 12.0133 13.9226 12.3392C13.5968 12.665 13.0701 12.665 12.7443 12.3392L9.99012 9.58501L7.24595 12.235C6.91345 12.5542 6.38762 12.545 6.06762 12.2142C5.74762 11.8833 5.75678 11.355 6.08762 11.0358L9.42095 7.81751C9.58345 7.66085 9.79178 7.58335 10.0001 7.58335Z" fill="white"/>
</mask>
<g mask="url(#mask0_5_386)">
<rect x="20" y="20.5" width="20" height="20" transform="rotate(-180 20 20.5)" fill="#BC244A"/>
</g>
</svg>
