<svg width="20" height="20" viewBox="0 0 20 20" fill="none" xmlns="http://www.w3.org/2000/svg">
<path fill-rule="evenodd" clip-rule="evenodd" d="M14.1659 10.0045C14.1659 10.0028 14.1667 10.002 14.1667 10.0003C14.1667 9.97284 14.1534 9.95034 14.1509 9.92367C14.1442 9.84367 14.1342 9.76367 14.1034 9.68867C14.0809 9.632 14.0426 9.587 14.0084 9.537C13.9826 9.50034 13.9684 9.45784 13.9367 9.4245L11.5509 6.9245C11.2326 6.59117 10.7059 6.5795 10.3726 6.89701C10.0401 7.2145 10.0276 7.742 10.3451 8.07534L11.3867 9.167H6.66675C6.20675 9.167 5.83341 9.5395 5.83341 10.0003C5.83341 10.4603 6.20675 10.8337 6.66675 10.8337H11.3217L10.2442 11.9112C9.91841 12.2362 9.91841 12.7637 10.2442 13.0895C10.4067 13.252 10.6201 13.3337 10.8334 13.3337C11.0467 13.3337 11.2601 13.252 11.4226 13.0895L13.9226 10.5895C13.9984 10.5137 14.0601 10.422 14.1017 10.3212C14.1442 10.2203 14.1651 10.1128 14.1659 10.0045ZM10.0001 16.6667C6.32425 16.6667 3.33342 13.6758 3.33342 10C3.33342 6.32417 6.32425 3.33334 10.0001 3.33334C13.6759 3.33334 16.6667 6.32417 16.6667 10C16.6667 13.6758 13.6759 16.6667 10.0001 16.6667ZM10.0001 1.66667C5.40508 1.66667 1.66675 5.405 1.66675 10C1.66675 14.595 5.40508 18.3333 10.0001 18.3333C14.5951 18.3333 18.3334 14.595 18.3334 10C18.3334 5.405 14.5951 1.66667 10.0001 1.66667Z" fill="#CF4568"/>
<mask id="mask0_6_460" style="mask-type:alpha" maskUnits="userSpaceOnUse" x="1" y="1" width="18" height="18">
<path fill-rule="evenodd" clip-rule="evenodd" d="M14.1659 10.0045C14.1659 10.0028 14.1667 10.002 14.1667 10.0003C14.1667 9.97284 14.1534 9.95034 14.1509 9.92367C14.1442 9.84367 14.1342 9.76367 14.1034 9.68867C14.0809 9.632 14.0426 9.587 14.0084 9.537C13.9826 9.50034 13.9684 9.45784 13.9367 9.4245L11.5509 6.9245C11.2326 6.59117 10.7059 6.5795 10.3726 6.89701C10.0401 7.2145 10.0276 7.742 10.3451 8.07534L11.3867 9.167H6.66675C6.20675 9.167 5.83341 9.5395 5.83341 10.0003C5.83341 10.4603 6.20675 10.8337 6.66675 10.8337H11.3217L10.2442 11.9112C9.91841 12.2362 9.91841 12.7637 10.2442 13.0895C10.4067 13.252 10.6201 13.3337 10.8334 13.3337C11.0467 13.3337 11.2601 13.252 11.4226 13.0895L13.9226 10.5895C13.9984 10.5137 14.0601 10.422 14.1017 10.3212C14.1442 10.2203 14.1651 10.1128 14.1659 10.0045ZM10.0001 16.6667C6.32425 16.6667 3.33342 13.6758 3.33342 10C3.33342 6.32417 6.32425 3.33334 10.0001 3.33334C13.6759 3.33334 16.6667 6.32417 16.6667 10C16.6667 13.6758 13.6759 16.6667 10.0001 16.6667ZM10.0001 1.66667C5.40508 1.66667 1.66675 5.405 1.66675 10C1.66675 14.595 5.40508 18.3333 10.0001 18.3333C14.5951 18.3333 18.3334 14.595 18.3334 10C18.3334 5.405 14.5951 1.66667 10.0001 1.66667Z" fill="white"/>
</mask>
<g mask="url(#mask0_6_460)">
<rect width="10.8333" height="10.8333" fill="#CF4568"/>
</g>
</svg>
