<svg width="55" height="51" viewBox="0 0 55 51" fill="none" xmlns="http://www.w3.org/2000/svg">
<circle cx="14.1698" cy="30.7621" r="10.1778" transform="rotate(-90 14.1698 30.7621)" fill="#272324" stroke="#F9EBEF" stroke-width="2.42547"/>
<mask id="path-2-inside-1_1409_119" fill="white">
<path fill-rule="evenodd" clip-rule="evenodd" d="M23.8277 27.0025C17.381 27.0025 12.155 32.2286 12.155 38.6752C12.155 45.1219 17.381 50.3479 23.8277 50.3479C25.4975 50.3479 27.0855 49.9972 28.522 49.3656C29.9584 49.9972 31.5462 50.3478 33.216 50.3478C39.6626 50.3478 44.8887 45.1217 44.8887 38.6751C44.8887 32.2285 39.6626 27.0024 33.216 27.0024C31.5461 27.0024 29.9582 27.3531 28.5217 27.9848C27.0853 27.3531 25.4974 27.0025 23.8277 27.0025Z"/>
</mask>
<path fill-rule="evenodd" clip-rule="evenodd" d="M23.8277 27.0025C17.381 27.0025 12.155 32.2286 12.155 38.6752C12.155 45.1219 17.381 50.3479 23.8277 50.3479C25.4975 50.3479 27.0855 49.9972 28.522 49.3656C29.9584 49.9972 31.5462 50.3478 33.216 50.3478C39.6626 50.3478 44.8887 45.1217 44.8887 38.6751C44.8887 32.2285 39.6626 27.0024 33.216 27.0024C31.5461 27.0024 29.9582 27.3531 28.5217 27.9848C27.0853 27.3531 25.4974 27.0025 23.8277 27.0025Z" fill="#272324"/>
<path d="M28.522 49.3656L29.4983 47.1453L28.5219 46.716L27.5456 47.1453L28.522 49.3656ZM28.5217 27.9848L27.5454 30.2051L28.5217 30.6344L29.4981 30.205L28.5217 27.9848ZM14.5804 38.6752C14.5804 33.5681 18.7206 29.428 23.8277 29.428L23.8277 24.5771C16.0415 24.5771 9.72951 30.889 9.72951 38.6752L14.5804 38.6752ZM23.8277 47.9224C18.7206 47.9224 14.5804 43.7823 14.5804 38.6752L9.72951 38.6752C9.72951 46.4614 16.0415 52.7734 23.8277 52.7734L23.8277 47.9224ZM27.5456 47.1453C26.411 47.6442 25.155 47.9224 23.8277 47.9224L23.8277 52.7734C25.84 52.7734 27.76 52.3503 29.4983 51.5858L27.5456 47.1453ZM33.216 47.9223C31.8887 47.9223 30.6328 47.6442 29.4983 47.1453L27.5457 51.5859C29.2839 52.3502 31.2037 52.7732 33.216 52.7732L33.216 47.9223ZM42.4632 38.6751C42.4632 43.7822 38.3231 47.9223 33.216 47.9223L33.216 52.7732C41.0022 52.7733 47.3141 46.4613 47.3141 38.6751L42.4632 38.6751ZM33.216 29.4279C38.3231 29.4279 42.4632 33.568 42.4632 38.6751L47.3141 38.6751C47.3141 30.8889 41.0022 24.577 33.216 24.577L33.216 29.4279ZM29.4981 30.205C30.6327 29.7061 31.8886 29.4279 33.216 29.4279L33.216 24.577C31.2036 24.577 29.2836 25.0001 27.5453 25.7645L29.4981 30.205ZM23.8277 29.428C25.1549 29.428 26.4108 29.7062 27.5454 30.2051L29.498 25.7645C27.7598 25.0001 25.8399 24.5771 23.8277 24.5771L23.8277 29.428Z" fill="#F9EBEF" mask="url(#path-2-inside-1_1409_119)"/>
<mask id="path-4-inside-2_1409_119" fill="white">
<path fill-rule="evenodd" clip-rule="evenodd" d="M32.0421 25.7335C31.4105 24.2971 31.0599 22.7093 31.0599 21.0395C31.0599 14.5929 36.286 9.36682 42.7326 9.36682C49.1792 9.36682 54.4053 14.5929 54.4053 21.0395C54.4053 22.7094 54.0546 24.2975 53.4229 25.734C54.0545 27.1704 54.4051 28.7583 54.4051 30.428C54.4051 36.8747 49.179 42.1007 42.7324 42.1007C36.2858 42.1007 31.0597 36.8747 31.0597 30.428C31.0597 28.7581 31.4104 27.17 32.0421 25.7335Z"/>
</mask>
<path fill-rule="evenodd" clip-rule="evenodd" d="M32.0421 25.7335C31.4105 24.2971 31.0599 22.7093 31.0599 21.0395C31.0599 14.5929 36.286 9.36682 42.7326 9.36682C49.1792 9.36682 54.4053 14.5929 54.4053 21.0395C54.4053 22.7094 54.0546 24.2975 53.4229 25.734C54.0545 27.1704 54.4051 28.7583 54.4051 30.428C54.4051 36.8747 49.179 42.1007 42.7324 42.1007C36.2858 42.1007 31.0597 36.8747 31.0597 30.428C31.0597 28.7581 31.4104 27.17 32.0421 25.7335Z" fill="#272324"/>
<path d="M32.0421 25.7335L34.2624 26.7099L34.6918 25.7336L34.2624 24.7572L32.0421 25.7335ZM53.4229 25.734L51.2026 24.7576L50.7732 25.7339L51.2026 26.7103L53.4229 25.734ZM34.2624 24.7572C33.7635 23.6227 33.4854 22.3668 33.4854 21.0395L28.6345 21.0395C28.6344 23.0518 29.0575 24.9716 29.8218 26.7098L34.2624 24.7572ZM33.4854 21.0395C33.4854 15.9324 37.6255 11.7923 42.7326 11.7923L42.7326 6.94135C34.9464 6.94135 28.6345 13.2533 28.6345 21.0395L33.4854 21.0395ZM42.7326 11.7923C47.8397 11.7923 51.9798 15.9324 51.9798 21.0395L56.8307 21.0395C56.8307 13.2533 50.5188 6.94135 42.7326 6.94135L42.7326 11.7923ZM51.9798 21.0395C51.9798 22.3669 51.7016 23.6229 51.2026 24.7576L55.6431 26.7104C56.4076 24.972 56.8307 23.052 56.8307 21.0395L51.9798 21.0395ZM51.2026 26.7103C51.7014 27.8449 51.9796 29.1007 51.9796 30.428L56.8305 30.428C56.8305 28.4158 56.4075 26.4959 55.6432 24.7577L51.2026 26.7103ZM51.9796 30.428C51.9796 35.5351 47.8395 39.6752 42.7324 39.6752L42.7324 44.5262C50.5186 44.5262 56.8305 38.2142 56.8305 30.428L51.9796 30.428ZM42.7324 39.6752C37.6253 39.6752 33.4852 35.5351 33.4852 30.428L28.6343 30.428C28.6343 38.2142 34.9462 44.5262 42.7324 44.5262L42.7324 39.6752ZM33.4852 30.428C33.4852 29.1006 33.7634 27.8446 34.2624 26.7099L29.8219 24.7571C29.0574 26.4955 28.6343 28.4155 28.6343 30.428L33.4852 30.428Z" fill="#F9EBEF" mask="url(#path-4-inside-2_1409_119)"/>
<mask id="path-6-inside-3_1409_119" fill="white">
<path fill-rule="evenodd" clip-rule="evenodd" d="M29.1568 22.4685C27.7204 23.1001 26.1325 23.4507 24.4627 23.4507C18.0161 23.4507 12.79 18.2247 12.79 11.778C12.79 5.3314 18.0161 0.105363 24.4627 0.105364C26.1325 0.105364 27.7204 0.455973 29.1568 1.08759C30.5932 0.455973 32.1811 0.105365 33.8508 0.105366C40.2975 0.105367 45.5235 5.3314 45.5235 11.778C45.5235 18.2247 40.2975 23.4507 33.8508 23.4507C32.1811 23.4507 30.5932 23.1001 29.1568 22.4685Z"/>
</mask>
<path fill-rule="evenodd" clip-rule="evenodd" d="M29.1568 22.4685C27.7204 23.1001 26.1325 23.4507 24.4627 23.4507C18.0161 23.4507 12.79 18.2247 12.79 11.778C12.79 5.3314 18.0161 0.105363 24.4627 0.105364C26.1325 0.105364 27.7204 0.455973 29.1568 1.08759C30.5932 0.455973 32.1811 0.105365 33.8508 0.105366C40.2975 0.105367 45.5235 5.3314 45.5235 11.778C45.5235 18.2247 40.2975 23.4507 33.8508 23.4507C32.1811 23.4507 30.5932 23.1001 29.1568 22.4685Z" fill="#272324"/>
<path d="M29.1568 22.4685L30.1331 20.2482L29.1568 19.8189L28.1805 20.2482L29.1568 22.4685ZM29.1568 1.08759L28.1805 3.30788L29.1568 3.73719L30.1331 3.30788L29.1568 1.08759ZM28.1805 20.2482C27.0459 20.7471 25.79 21.0252 24.4627 21.0252L24.4627 25.8762C26.475 25.8762 28.3949 25.4531 30.1331 24.6888L28.1805 20.2482ZM24.4627 21.0252C19.3556 21.0252 15.2155 16.8851 15.2155 11.778L10.3646 11.778C10.3646 19.5642 16.6765 25.8762 24.4627 25.8762L24.4627 21.0252ZM15.2155 11.778C15.2155 6.67095 19.3556 2.53083 24.4627 2.53083L24.4627 -2.3201C16.6765 -2.32011 10.3646 3.99185 10.3646 11.778L15.2155 11.778ZM24.4627 2.53083C25.79 2.53083 27.0459 2.80899 28.1805 3.30788L30.1331 -1.13271C28.3949 -1.89705 26.475 -2.3201 24.4627 -2.3201L24.4627 2.53083ZM30.1331 3.30788C31.2676 2.80899 32.5235 2.53083 33.8508 2.53083L33.8508 -2.3201C31.8386 -2.3201 29.9187 -1.89705 28.1805 -1.13271L30.1331 3.30788ZM33.8508 2.53083C38.9579 2.53083 43.098 6.67095 43.098 11.778L47.949 11.778C47.949 3.99185 41.637 -2.3201 33.8508 -2.3201L33.8508 2.53083ZM43.098 11.778C43.098 16.8851 38.9579 21.0252 33.8508 21.0252L33.8508 25.8762C41.637 25.8762 47.949 19.5642 47.949 11.778L43.098 11.778ZM33.8508 21.0252C32.5235 21.0252 31.2676 20.7471 30.1331 20.2482L28.1805 24.6888C29.9187 25.4531 31.8386 25.8762 33.8508 25.8762L33.8508 21.0252Z" fill="#F9EBEF" mask="url(#path-6-inside-3_1409_119)"/>
<path d="M22.1901 25.3593L23.8418 19.8503L23.2648 16.8596L21.3235 14.0789C19.9768 13.3269 17.5604 12.4308 17.1261 11.5605C16.8558 11.0186 12.4564 10.8757 11.9355 11.0186C10.304 11.4662 9.15118 12.9596 7.78704 13.6591L4.16682 19.2206C4.27175 20.4099 4.34599 22.5909 4.57309 23.1885C5.42692 25.4354 5.15097 25.142 5.55051 25.7674L7.26237 25.3593L13.401 21.9489L17.6615 22.6964L22.1901 25.3593Z" fill="#272324"/>
<mask id="path-9-inside-4_1409_119" fill="white">
<path d="M25.7816 21.6317C25.8922 19.8489 25.5821 18.0652 24.8762 16.4244C24.1703 14.7837 23.0885 13.3319 21.718 12.1864C20.3476 11.0409 18.7269 10.2337 16.987 9.83004C15.247 9.4264 13.4365 9.43761 11.7017 9.86275C9.96688 10.2879 8.35635 11.1151 7.00018 12.2775C5.64401 13.4399 4.5802 14.9049 3.89468 16.5543C3.20916 18.2036 2.92113 19.9911 3.05385 21.7723C3.18658 23.5536 3.73633 25.2786 4.65873 26.8082L6.92207 25.4433C6.2137 24.2686 5.79151 22.9438 5.68958 21.5759C5.58765 20.208 5.80885 18.8353 6.3353 17.5687C6.86176 16.302 7.67872 15.1769 8.72021 14.2842C9.7617 13.3916 10.9985 12.7563 12.3308 12.4298C13.6631 12.1033 15.0535 12.0947 16.3897 12.4047C17.7259 12.7147 18.9705 13.3346 20.023 14.2143C21.0754 15.094 21.9062 16.2089 22.4483 17.4689C22.9904 18.729 23.2286 20.0988 23.1436 21.4679L25.7816 21.6317Z"/>
</mask>
<path d="M25.7816 21.6317C25.8922 19.8489 25.5821 18.0652 24.8762 16.4244C24.1703 14.7837 23.0885 13.3319 21.718 12.1864C20.3476 11.0409 18.7269 10.2337 16.987 9.83004C15.247 9.4264 13.4365 9.43761 11.7017 9.86275C9.96688 10.2879 8.35635 11.1151 7.00018 12.2775C5.64401 13.4399 4.5802 14.9049 3.89468 16.5543C3.20916 18.2036 2.92113 19.9911 3.05385 21.7723C3.18658 23.5536 3.73633 25.2786 4.65873 26.8082L6.92207 25.4433C6.2137 24.2686 5.79151 22.9438 5.68958 21.5759C5.58765 20.208 5.80885 18.8353 6.3353 17.5687C6.86176 16.302 7.67872 15.1769 8.72021 14.2842C9.7617 13.3916 10.9985 12.7563 12.3308 12.4298C13.6631 12.1033 15.0535 12.0947 16.3897 12.4047C17.7259 12.7147 18.9705 13.3346 20.023 14.2143C21.0754 15.094 21.9062 16.2089 22.4483 17.4689C22.9904 18.729 23.2286 20.0988 23.1436 21.4679L25.7816 21.6317Z" stroke="#F9EBEF" stroke-width="4.85094" mask="url(#path-9-inside-4_1409_119)"/>
<circle cx="28.1565" cy="25.2279" r="5.08341" fill="#272324" stroke="#F9EBEF" stroke-width="2.42547"/>
<path d="M30.5317 19.3723C31.3215 18.6744 33.0171 16.7499 33.4803 14.634C33.9434 12.5181 33.44 10.5691 33.1304 9.8591" stroke="#F9EBEF" stroke-width="1.52252" stroke-linecap="square"/>
<path d="M28.7537 19.4783C29.0996 18.8135 29.7332 17.1032 29.5001 15.5808C29.267 14.0584 28.4351 12.8937 28.0483 12.5016" stroke="#F9EBEF" stroke-width="1.52252" stroke-linecap="square"/>
<path d="M22.482 23.0544C21.7842 22.2645 19.8596 20.5689 17.7438 20.1057C15.6279 19.6426 13.6789 20.146 12.9689 20.4556" stroke="#F9EBEF" stroke-width="1.52252" stroke-linecap="square"/>
<path d="M22.5881 24.8335C21.9233 24.4875 20.213 23.854 18.6906 24.087C17.1683 24.3201 16.0035 25.152 15.6114 25.5388" stroke="#F9EBEF" stroke-width="1.52252" stroke-linecap="square"/>
<path d="M25.9049 31.0312C25.115 31.729 23.4194 33.6536 22.9563 35.7695C22.4931 37.8853 22.9965 39.8344 23.3061 40.5444" stroke="#F9EBEF" stroke-width="1.52252" stroke-linecap="square"/>
<path d="M27.6829 30.9252C27.3369 31.59 26.7034 33.3003 26.9364 34.8226C27.1695 36.345 28.0014 37.5098 28.3882 37.9019" stroke="#F9EBEF" stroke-width="1.52252" stroke-linecap="square"/>
<path d="M33.8842 28.1141C34.582 28.9039 36.5066 30.5995 38.6224 31.0627C40.7383 31.5259 42.6873 31.0224 43.3973 30.7128" stroke="#F9EBEF" stroke-width="1.52252" stroke-linecap="square"/>
<path d="M33.7781 26.3356C34.4429 26.6815 36.1532 27.3151 37.6756 27.082C39.198 26.8489 40.3627 26.017 40.7548 25.6302" stroke="#F9EBEF" stroke-width="1.52252" stroke-linecap="square"/>
</svg>
