<svg width="24" height="24" viewBox="0 0 24 24" fill="none" xmlns="http://www.w3.org/2000/svg">
<g clip-path="url(#clip0_58_1512)">
<path d="M22.2375 14.2406C22.2375 14.2312 22.2281 14.2312 22.2281 14.2219C22.1676 14.0515 22.0956 13.8855 22.0125 13.725L18.1219 4.85625C18.0829 4.77215 18.0289 4.6959 17.9625 4.63125C17.6838 4.35204 17.3528 4.13053 16.9885 3.97939C16.6241 3.82825 16.2335 3.75045 15.839 3.75045C15.4446 3.75045 15.054 3.82825 14.6896 3.97939C14.3252 4.13053 13.9943 4.35204 13.7156 4.63125C13.6469 4.70028 13.5925 4.78219 13.5555 4.87228C13.5185 4.96236 13.4996 5.05886 13.5 5.15625V7.875H10.5V5.15625C10.5003 5.05886 10.4815 4.96236 10.4445 4.87228C10.4075 4.78219 10.353 4.70028 10.2844 4.63125C10.0057 4.35204 9.67472 4.13053 9.31035 3.97939C8.94598 3.82825 8.55539 3.75045 8.16092 3.75045C7.76645 3.75045 7.37585 3.82825 7.01148 3.97939C6.64711 4.13053 6.31613 4.35204 6.03748 4.63125C5.97107 4.6959 5.91705 4.77215 5.8781 4.85625L1.98748 13.7156C1.90436 13.8761 1.83232 14.0422 1.77185 14.2125C1.77185 14.2219 1.76248 14.2219 1.76248 14.2313C1.54151 14.8496 1.45852 15.5087 1.51935 16.1625C1.58018 16.8163 1.78334 17.4489 2.11458 18.0158C2.44582 18.5827 2.89712 19.0703 3.4368 19.4443C3.97648 19.8183 4.59147 20.0697 5.23861 20.1808C5.88575 20.2919 6.54936 20.26 7.18288 20.0874C7.81639 19.9148 8.40446 19.6057 8.90582 19.1817C9.40718 18.7577 9.80968 18.2291 10.0851 17.633C10.3605 17.037 10.5021 16.3879 10.5 15.7313V9.375H13.5V15.7313C13.4965 16.3882 13.637 17.038 13.9114 17.6349C14.1859 18.2318 14.5878 18.7614 15.0888 19.1864C15.5898 19.6114 16.1777 19.9216 16.8114 20.0951C17.4451 20.2686 18.109 20.3013 18.7567 20.1908C19.4043 20.0803 20.0199 19.8294 20.5602 19.4556C21.1005 19.0818 21.5524 18.5942 21.8841 18.0271C22.2159 17.46 22.4194 16.8272 22.4804 16.173C22.5415 15.5189 22.4586 14.8593 22.2375 14.2406ZM8.82185 16.7719C8.54295 17.5081 7.98585 18.1051 7.27071 18.4343C6.55557 18.7634 5.73971 18.7983 4.9991 18.5313C4.25849 18.2644 3.6525 17.717 3.31184 17.0072C2.97118 16.2975 2.92315 15.4823 3.1781 14.7375L3.34685 14.3531C3.65914 13.7614 4.16027 13.2911 4.77058 13.0169C5.38088 12.7427 6.06532 12.6804 6.7151 12.8399C7.36488 12.9994 7.9427 13.3715 8.3567 13.8971C8.7707 14.4227 8.99713 15.0716 8.99998 15.7406C9.00129 16.0921 8.941 16.4412 8.82185 16.7719ZM19.0219 18.5719C18.5687 18.7361 18.0826 18.7886 17.6048 18.7251C17.127 18.6616 16.6715 18.4839 16.2769 18.2071C15.8823 17.9302 15.5603 17.5624 15.338 17.1347C15.1157 16.707 14.9998 16.232 15 15.75C15.0028 15.0809 15.2293 14.432 15.6433 13.9064C16.0573 13.3808 16.6351 13.0087 17.2849 12.8493C17.9346 12.6898 18.6191 12.7521 19.2294 13.0263C19.8397 13.3005 20.3408 13.7708 20.6531 14.3625L20.8219 14.7469C21.0874 15.4929 21.0472 16.3137 20.71 17.0303C20.3728 17.7468 19.766 18.301 19.0219 18.5719Z" fill="#272324"/>
</g>
<defs>
<clipPath id="clip0_58_1512">
<rect width="24" height="24" fill="white"/>
</clipPath>
</defs>
</svg>
