<?xml version="1.0" encoding="UTF-8"?>
<!DOCTYPE svg PUBLIC "-//W3C//DTD SVG 1.1//EN" "http://www.w3.org/Graphics/SVG/1.1/DTD/svg11.dtd">
<svg xmlns="http://www.w3.org/2000/svg" version="1.1" width="24px" height="24px" style="shape-rendering:geometricPrecision; text-rendering:geometricPrecision; image-rendering:optimizeQuality; fill-rule:evenodd; clip-rule:evenodd" xmlns:xlink="http://www.w3.org/1999/xlink">
<g><path style="opacity:1" fill="#d3d3d3" d="M 8.5,2.5 C 10.5598,1.1888 12.7265,1.1888 15,2.5C 15.7168,6.76757 14.5501,7.43423 11.5,4.5C 10.8165,4.86273 10.1499,5.19607 9.5,5.5C 9.73731,4.20895 9.40397,3.20895 8.5,2.5 Z"/></g>
<g><path style="opacity:1" fill="#fdfdfd" d="M 8.5,2.5 C 9.40397,3.20895 9.73731,4.20895 9.5,5.5C 11.6353,7.36895 14.3019,8.03562 17.5,7.5C 17.8333,8.5 18.5,9.16667 19.5,9.5C 19.5,12.8333 19.5,16.1667 19.5,19.5C 18.5,19.8333 17.8333,20.5 17.5,21.5C 13.5,21.5 9.5,21.5 5.5,21.5C 5.16667,20.5 4.5,19.8333 3.5,19.5C 3.5,16.1667 3.5,12.8333 3.5,9.5C 4.5,9.16667 5.16667,8.5 5.5,7.5C 7.0276,6.19792 8.0276,4.53125 8.5,2.5 Z M 9.5,12.5 C 10.8333,12.5 12.1667,12.5 13.5,12.5C 13.5,13.8333 13.5,15.1667 13.5,16.5C 12.1667,16.5 10.8333,16.5 9.5,16.5C 9.5,15.1667 9.5,13.8333 9.5,12.5 Z"/></g>
<g><path style="opacity:0.784" fill="#b1b0b0" d="M 5.5,7.5 C 5.16667,8.5 4.5,9.16667 3.5,9.5C 3.5,8.16667 4.16667,7.5 5.5,7.5 Z"/></g>
<g><path style="opacity:0.047" fill="#a7a7a7" d="M 17.5,7.5 C 18.8333,7.5 19.5,8.16667 19.5,9.5C 18.5,9.16667 17.8333,8.5 17.5,7.5 Z"/></g>
<g><path style="opacity:0.047" fill="#a7a6a6" d="M 3.5,19.5 C 4.5,19.8333 5.16667,20.5 5.5,21.5C 4.16667,21.5 3.5,20.8333 3.5,19.5 Z"/></g>
<g><path style="opacity:0.047" fill="#a7a6a6" d="M 19.5,19.5 C 19.5,20.8333 18.8333,21.5 17.5,21.5C 17.8333,20.5 18.5,19.8333 19.5,19.5 Z"/></g>
</svg>
