<svg width="64" height="61" viewBox="0 0 64 61" fill="none" xmlns="http://www.w3.org/2000/svg">
<circle cx="16.5724" cy="37.0196" r="11.9878" transform="rotate(-90 16.5724 37.0196)" fill="#F9EBEF" stroke="#272324" stroke-width="2.85679"/>
<mask id="path-2-inside-1_1409_60" fill="white">
<path fill-rule="evenodd" clip-rule="evenodd" d="M27.9471 32.5916C20.3541 32.5916 14.1987 38.747 14.1987 46.34C14.1987 53.9331 20.3541 60.0885 27.9471 60.0885C29.9139 60.0885 31.7841 59.6755 33.4759 58.9316C35.1677 59.6755 37.0379 60.0884 39.0045 60.0884C46.5975 60.0884 52.7529 53.933 52.7529 46.3399C52.7529 38.7469 46.5975 32.5915 39.0045 32.5915C37.0378 32.5915 35.1675 33.0045 33.4757 33.7484C31.7839 33.0045 29.9138 32.5916 27.9471 32.5916Z"/>
</mask>
<path fill-rule="evenodd" clip-rule="evenodd" d="M27.9471 32.5916C20.3541 32.5916 14.1987 38.747 14.1987 46.34C14.1987 53.9331 20.3541 60.0885 27.9471 60.0885C29.9139 60.0885 31.7841 59.6755 33.4759 58.9316C35.1677 59.6755 37.0379 60.0884 39.0045 60.0884C46.5975 60.0884 52.7529 53.933 52.7529 46.3399C52.7529 38.7469 46.5975 32.5915 39.0045 32.5915C37.0378 32.5915 35.1675 33.0045 33.4757 33.7484C31.7839 33.0045 29.9138 32.5916 27.9471 32.5916Z" fill="#F9EBEF"/>
<path d="M33.4759 58.9316L34.6258 56.3164L33.4759 55.8108L32.326 56.3165L33.4759 58.9316ZM33.4757 33.7484L32.3258 36.3635L33.4757 36.8692L34.6256 36.3635L33.4757 33.7484ZM17.0555 46.34C17.0555 40.3248 21.9319 35.4484 27.9471 35.4484L27.9471 29.7348C18.7763 29.7348 11.3419 37.1692 11.3419 46.34L17.0555 46.34ZM27.9471 57.2317C21.9318 57.2317 17.0555 52.3553 17.0555 46.34L11.3419 46.34C11.3419 55.5109 18.7763 62.9453 27.9471 62.9453L27.9471 57.2317ZM32.326 56.3165C30.9897 56.9041 29.5105 57.2317 27.9471 57.2317L27.9471 62.9453C30.3172 62.9453 32.5785 62.447 34.6259 61.5467L32.326 56.3165ZM39.0045 57.2316C37.4412 57.2316 35.9621 56.904 34.6258 56.3164L32.3261 61.5468C34.3733 62.4469 36.6345 62.9452 39.0045 62.9452L39.0045 57.2316ZM49.8961 46.3399C49.8961 52.3552 45.0198 57.2316 39.0045 57.2316L39.0045 62.9452C48.1753 62.9452 55.6097 55.5108 55.6097 46.3399L49.8961 46.3399ZM39.0045 35.4483C45.0198 35.4483 49.8961 40.3246 49.8961 46.3399L55.6097 46.3399C55.6097 37.1691 48.1753 29.7347 39.0045 29.7347L39.0045 35.4483ZM34.6256 36.3635C35.9619 35.7759 37.4412 35.4483 39.0045 35.4483L39.0045 29.7347C36.6344 29.7347 34.3731 30.233 32.3258 31.1332L34.6256 36.3635ZM27.9471 35.4484C29.5104 35.4484 30.9896 35.776 32.3258 36.3635L34.6256 31.1332C32.5783 30.2331 30.3171 29.7348 27.9471 29.7348L27.9471 35.4484Z" fill="#272324" mask="url(#path-2-inside-1_1409_60)"/>
<mask id="path-4-inside-2_1409_60" fill="white">
<path fill-rule="evenodd" clip-rule="evenodd" d="M36.465 36.6262C36.465 44.2193 42.6204 50.3747 50.2135 50.3747C57.8065 50.3747 63.9619 44.2193 63.9619 36.6262C63.9619 34.6594 63.5489 32.789 62.8049 31.0971C63.5489 29.4052 63.9619 27.5349 63.9619 25.568C63.9619 17.975 57.8065 11.8196 50.2135 11.8196C42.6204 11.8196 36.465 17.975 36.465 25.568C36.465 27.5349 36.878 29.4052 37.622 31.0971C36.878 32.789 36.465 34.6594 36.465 36.6262Z"/>
</mask>
<path fill-rule="evenodd" clip-rule="evenodd" d="M36.465 36.6262C36.465 44.2193 42.6204 50.3747 50.2135 50.3747C57.8065 50.3747 63.9619 44.2193 63.9619 36.6262C63.9619 34.6594 63.5489 32.789 62.8049 31.0971C63.5489 29.4052 63.9619 27.5349 63.9619 25.568C63.9619 17.975 57.8065 11.8196 50.2135 11.8196C42.6204 11.8196 36.465 17.975 36.465 25.568C36.465 27.5349 36.878 29.4052 37.622 31.0971C36.878 32.789 36.465 34.6594 36.465 36.6262Z" fill="#F9EBEF"/>
<path d="M62.8049 31.0971L60.1898 29.9471L59.6841 31.0971L60.1898 32.2471L62.8049 31.0971ZM37.622 31.0971L40.2371 32.2471L40.7429 31.0971L40.2372 29.9471L37.622 31.0971ZM50.2135 47.5179C44.1982 47.5179 39.3218 42.6415 39.3218 36.6262L33.6082 36.6262C33.6082 45.7971 41.0426 53.2315 50.2135 53.2315L50.2135 47.5179ZM61.1051 36.6262C61.1051 42.6415 56.2288 47.5179 50.2135 47.5179L50.2135 53.2315C59.3843 53.2315 66.8187 45.7971 66.8187 36.6262L61.1051 36.6262ZM60.1898 32.2471C60.7775 33.5835 61.1051 35.0628 61.1051 36.6262L66.8187 36.6262C66.8187 34.256 66.3204 31.9946 65.42 29.9471L60.1898 32.2471ZM61.1051 25.568C61.1051 27.1314 60.7775 28.6107 60.1898 29.9471L65.42 32.2471C66.3204 30.1997 66.8187 27.9383 66.8187 25.568L61.1051 25.568ZM50.2135 14.6764C56.2288 14.6764 61.1051 19.5527 61.1051 25.568L66.8187 25.568C66.8187 16.3972 59.3843 8.96279 50.2135 8.96278L50.2135 14.6764ZM39.3218 25.568C39.3218 19.5527 44.1982 14.6764 50.2135 14.6764L50.2135 8.96278C41.0426 8.96278 33.6082 16.3972 33.6082 25.568L39.3218 25.568ZM40.2372 29.9471C39.6495 28.6107 39.3218 27.1314 39.3218 25.568L33.6082 25.568C33.6082 27.9383 34.1066 30.1997 35.0069 32.2471L40.2372 29.9471ZM39.3218 36.6262C39.3218 35.0628 39.6495 33.5835 40.2371 32.2471L35.0069 29.9471C34.1066 31.9946 33.6082 34.256 33.6082 36.6262L39.3218 36.6262Z" fill="#272324" mask="url(#path-4-inside-2_1409_60)"/>
<mask id="path-6-inside-3_1409_60" fill="white">
<path fill-rule="evenodd" clip-rule="evenodd" d="M39.7532 28.4081C47.3463 28.4081 53.5017 22.2528 53.5017 14.6597C53.5017 7.06665 47.3463 0.911261 39.7532 0.911259C37.7865 0.911259 35.9163 1.32421 34.2245 2.06813C32.5326 1.32421 30.6624 0.91126 28.6957 0.911259C21.1027 0.911258 14.9473 7.06665 14.9473 14.6597C14.9473 22.2528 21.1026 28.4081 28.6957 28.4081C30.6624 28.4081 32.5326 27.9952 34.2245 27.2513C35.9163 27.9952 37.7865 28.4081 39.7532 28.4081Z"/>
</mask>
<path fill-rule="evenodd" clip-rule="evenodd" d="M39.7532 28.4081C47.3463 28.4081 53.5017 22.2528 53.5017 14.6597C53.5017 7.06665 47.3463 0.911261 39.7532 0.911259C37.7865 0.911259 35.9163 1.32421 34.2245 2.06813C32.5326 1.32421 30.6624 0.91126 28.6957 0.911259C21.1027 0.911258 14.9473 7.06665 14.9473 14.6597C14.9473 22.2528 21.1026 28.4081 28.6957 28.4081C30.6624 28.4081 32.5326 27.9952 34.2245 27.2513C35.9163 27.9952 37.7865 28.4081 39.7532 28.4081Z" fill="#F9EBEF"/>
<path d="M34.2245 2.06813L33.0745 4.68327L34.2245 5.18891L35.3744 4.68327L34.2245 2.06813ZM34.2245 27.2513L35.3744 24.6361L34.2245 24.1305L33.0745 24.6361L34.2245 27.2513ZM50.6449 14.6597C50.6449 20.675 45.7685 25.5514 39.7532 25.5514L39.7532 31.2649C48.924 31.2649 56.3585 23.8305 56.3585 14.6597L50.6449 14.6597ZM39.7532 3.76805C45.7685 3.76805 50.6449 8.64441 50.6449 14.6597L56.3585 14.6597C56.3585 5.48889 48.924 -1.94553 39.7532 -1.94553L39.7532 3.76805ZM35.3744 4.68327C36.7107 4.09567 38.1899 3.76805 39.7532 3.76805L39.7532 -1.94553C37.3831 -1.94553 35.1219 -1.44725 33.0745 -0.547009L35.3744 4.68327ZM28.6957 3.76805C30.259 3.76805 31.7382 4.09567 33.0745 4.68327L35.3744 -0.547009C33.3271 -1.44725 31.0658 -1.94553 28.6957 -1.94553L28.6957 3.76805ZM17.8041 14.6597C17.8041 8.64441 22.6804 3.76805 28.6957 3.76805L28.6957 -1.94553C19.5249 -1.94554 12.0905 5.48888 12.0905 14.6597L17.8041 14.6597ZM28.6957 25.5514C22.6804 25.5514 17.8041 20.675 17.8041 14.6597L12.0905 14.6597C12.0905 23.8305 19.5249 31.2649 28.6957 31.2649L28.6957 25.5514ZM33.0745 24.6361C31.7382 25.2237 30.259 25.5514 28.6957 25.5514L28.6957 31.2649C31.0658 31.2649 33.3271 30.7667 35.3744 29.8664L33.0745 24.6361ZM39.7532 25.5514C38.1899 25.5514 36.7107 25.2237 35.3744 24.6361L33.0745 29.8664C35.1219 30.7667 37.3831 31.2649 39.7532 31.2649L39.7532 25.5514Z" fill="#272324" mask="url(#path-6-inside-3_1409_60)"/>
<path d="M26.0185 30.656L27.9639 24.1673L27.2842 20.6449L24.9977 17.3696C23.4116 16.4838 20.5654 15.4285 20.054 14.4033C19.7355 13.7652 14.5538 13.5969 13.9403 13.7652C12.0186 14.2923 10.6608 16.0513 9.05407 16.8752L4.79006 23.4257C4.91365 24.8265 5.00109 27.3953 5.26858 28.0992C6.27425 30.7457 5.94923 30.4 6.41981 31.1367L8.43609 30.656L15.6664 26.6392L20.6845 27.5196L26.0185 30.656Z" fill="#F9EBEF"/>
<mask id="path-9-inside-4_1409_60" fill="white">
<path d="M30.2483 26.2658C30.3786 24.166 30.0133 22.065 29.1819 20.1325C28.3505 18.1999 27.0763 16.49 25.4621 15.1408C23.8479 13.7916 21.9391 12.8408 19.8897 12.3654C17.8403 11.89 15.7079 11.9032 13.6645 12.4039C11.6212 12.9047 9.72428 13.879 8.12694 15.2481C6.5296 16.6172 5.27662 18.3427 4.46918 20.2854C3.66175 22.2281 3.3225 24.3334 3.47883 26.4314C3.63516 28.5294 4.28268 30.5612 5.36911 32.3628L8.03494 30.7552C7.2006 29.3716 6.70333 27.8113 6.58327 26.2001C6.46322 24.5889 6.72375 22.9721 7.34383 21.4802C7.96391 19.9883 8.92615 18.6631 10.1528 17.6117C11.3795 16.5603 12.8363 15.8121 14.4055 15.4275C15.9747 15.043 17.6124 15.0328 19.1862 15.3979C20.76 15.763 22.226 16.4932 23.4656 17.5293C24.7052 18.5655 25.6838 19.8786 26.3223 21.3628C26.9608 22.8469 27.2413 24.4603 27.1412 26.0729L30.2483 26.2658Z"/>
</mask>
<path d="M30.2483 26.2658C30.3786 24.166 30.0133 22.065 29.1819 20.1325C28.3505 18.1999 27.0763 16.49 25.4621 15.1408C23.8479 13.7916 21.9391 12.8408 19.8897 12.3654C17.8403 11.89 15.7079 11.9032 13.6645 12.4039C11.6212 12.9047 9.72428 13.879 8.12694 15.2481C6.5296 16.6172 5.27662 18.3427 4.46918 20.2854C3.66175 22.2281 3.3225 24.3334 3.47883 26.4314C3.63516 28.5294 4.28268 30.5612 5.36911 32.3628L8.03494 30.7552C7.2006 29.3716 6.70333 27.8113 6.58327 26.2001C6.46322 24.5889 6.72375 22.9721 7.34383 21.4802C7.96391 19.9883 8.92615 18.6631 10.1528 17.6117C11.3795 16.5603 12.8363 15.8121 14.4055 15.4275C15.9747 15.043 17.6124 15.0328 19.1862 15.3979C20.76 15.763 22.226 16.4932 23.4656 17.5293C24.7052 18.5655 25.6838 19.8786 26.3223 21.3628C26.9608 22.8469 27.2413 24.4603 27.1412 26.0729L30.2483 26.2658Z" stroke="#272324" stroke-width="5.71359" mask="url(#path-9-inside-4_1409_60)"/>
<circle cx="33.0457" cy="30.5013" r="5.9874" fill="#F9EBEF" stroke="#272324" stroke-width="2.85679"/>
<path d="M35.8432 23.6042C36.7735 22.7823 38.7706 20.5154 39.3161 18.0233C39.8617 15.5312 39.2687 13.2356 38.9041 12.3993" stroke="#272324" stroke-width="1.79328" stroke-linecap="square"/>
<path d="M33.7489 23.7291C34.1563 22.9461 34.9026 20.9317 34.6281 19.1386C34.3535 17.3455 33.3737 15.9735 32.9181 15.5117" stroke="#272324" stroke-width="1.79328" stroke-linecap="square"/>
<path d="M26.362 27.9413C25.5401 27.011 23.2732 25.0139 20.7811 24.4684C18.289 23.9228 15.9934 24.5157 15.1571 24.8804" stroke="#272324" stroke-width="1.79328" stroke-linecap="square"/>
<path d="M26.4866 30.0369C25.7036 29.6294 23.6892 28.8832 21.8961 29.1577C20.103 29.4322 18.731 30.4121 18.2692 30.8677" stroke="#272324" stroke-width="1.79328" stroke-linecap="square"/>
<path d="M30.3941 37.3366C29.4638 38.1585 27.4667 40.4254 26.9212 42.9175C26.3756 45.4096 26.9686 47.7052 27.3332 48.5415" stroke="#272324" stroke-width="1.79328" stroke-linecap="square"/>
<path d="M32.4884 37.2117C32.081 37.9947 31.3347 40.0091 31.6093 41.8022C31.8838 43.5953 32.8636 44.9673 33.3192 45.4291" stroke="#272324" stroke-width="1.79328" stroke-linecap="square"/>
<path d="M39.7913 33.9006C40.6132 34.8309 42.8801 36.828 45.3722 37.3736C47.8643 37.9191 50.1599 37.3262 50.9962 36.9615" stroke="#272324" stroke-width="1.79328" stroke-linecap="square"/>
<path d="M39.6667 31.8057C40.4497 32.2131 42.4641 32.9594 44.2572 32.6849C46.0504 32.4104 47.4223 31.4305 47.8841 30.9749" stroke="#272324" stroke-width="1.79328" stroke-linecap="square"/>
</svg>
