<svg width="12" height="16" viewBox="0 0 12 16" fill="none" xmlns="http://www.w3.org/2000/svg">
<path fill-rule="evenodd" clip-rule="evenodd" d="M6 12.5C4.7595 12.5 3.75 11.4905 3.75 10.25C3.75 9.0095 4.7595 8 6 8C7.2405 8 8.25 9.0095 8.25 10.25C8.25 11.4905 7.2405 12.5 6 12.5ZM4.49982 3.58288C4.49982 2.70988 5.17257 1.99963 5.99982 1.99963C6.82707 1.99963 7.49982 2.70988 7.49982 3.58288V4.99963H4.49982V3.58288ZM9.75 5H9V3.58325C9 1.88375 7.6545 0.5 6 0.5C4.3455 0.5 3 1.88375 3 3.58325V5H2.25C1.0095 5 0 6.0095 0 7.25V13.25C0 14.4905 1.0095 15.5 2.25 15.5H9.75C10.9905 15.5 12 14.4905 12 13.25V7.25C12 6.0095 10.9905 5 9.75 5Z" fill="#24BC98"/>
</svg>
