<svg width="20" height="20" viewBox="0 0 20 20" fill="none" xmlns="http://www.w3.org/2000/svg">
<g clip-path="url(#clip0_1_834)">
<path d="M10.4879 5.71056C10.0285 6.16994 9.56915 6.62931 9.10978 7.08869C8.37853 7.81994 7.64728 8.55118 6.9141 9.28437C6.74722 9.45125 6.58035 9.61811 6.41347 9.78499L7.47472 9.78499C7.01534 9.32562 6.55597 8.86624 6.09659 8.40687C5.36534 7.67562 4.6341 6.94437 3.90091 6.21118C3.73403 6.0443 3.56717 5.87744 3.40029 5.71056C3.12278 5.43306 2.61278 5.41243 2.33904 5.71056C2.06341 6.01056 2.04278 6.47555 2.33904 6.77181C2.79842 7.23118 3.25779 7.69056 3.71717 8.14994C4.44842 8.88118 5.17966 9.61243 5.91285 10.3456C6.07973 10.5125 6.24659 10.6794 6.41347 10.8462C6.70035 11.1331 7.18784 11.1331 7.47472 10.8462C7.9341 10.3869 8.39347 9.92749 8.85285 9.46811C9.5841 8.73686 10.3153 8.00562 11.0485 7.27243C11.2154 7.10555 11.3823 6.93869 11.5492 6.77181C11.8267 6.4943 11.8473 5.9843 11.5492 5.71056C11.2492 5.43682 10.786 5.4143 10.4879 5.71056Z" fill="white"/>
<path d="M6.19415 1.70397L6.19415 2.56085L6.19415 4.61765L6.19415 7.10581L6.19415 9.25637C6.19415 9.60512 6.18853 9.95387 6.19415 10.3007L6.19415 10.3157C6.19415 10.7076 6.53914 11.0845 6.94415 11.0657C7.35103 11.047 7.69415 10.7357 7.69415 10.3157L7.69415 9.45886L7.69415 7.40206L7.69415 4.9139L7.69415 2.76334C7.69415 2.41459 7.69977 2.06583 7.69415 1.71897L7.69415 1.70397C7.69415 1.3121 7.34916 0.935219 6.94415 0.953971C6.53727 0.972721 6.19415 1.28397 6.19415 1.70397Z" fill="white"/>
<path d="M9.51278 13.9456C9.97215 13.4862 10.4315 13.0268 10.8909 12.5674C11.6222 11.8362 12.3534 11.1049 13.0866 10.3718C13.2535 10.2049 13.4203 10.038 13.5872 9.87114L12.526 9.87114C12.9853 10.3305 13.4447 10.7899 13.9041 11.2493C14.6353 11.9805 15.3666 12.7118 16.0998 13.4449C16.2666 13.6118 16.4335 13.7787 16.6004 13.9456C16.8779 14.2231 17.3879 14.2437 17.6616 13.9456C17.9373 13.6456 17.9579 13.1806 17.6616 12.8843C17.2023 12.4249 16.7429 11.9656 16.2835 11.5062C15.5523 10.7749 14.821 10.0437 14.0878 9.31051C13.921 9.14363 13.7541 8.97677 13.5872 8.80989C13.3003 8.52301 12.8128 8.52301 12.526 8.80989C12.0666 9.26926 11.6072 9.72864 11.1478 10.188C10.4166 10.9193 9.68534 11.6505 8.95215 12.3837C8.78527 12.5506 8.61841 12.7174 8.45153 12.8843C8.17402 13.1618 8.1534 13.6718 8.45153 13.9456C8.75153 14.2212 9.21465 14.2437 9.51278 13.9456Z" fill="white"/>
<path d="M13.8067 17.8962L13.8067 17.0431L13.8067 15.0031L13.8067 12.5356L13.8067 10.3943C13.8067 10.0493 13.8123 9.70245 13.8067 9.35744L13.8067 9.34244C13.8067 8.95057 13.4617 8.57369 13.0567 8.59244C12.6498 8.61119 12.3067 8.92244 12.3067 9.34244L12.3067 10.1956L12.3067 12.2356L12.3067 14.7031L12.3067 16.8444C12.3067 17.1894 12.3011 17.5362 12.3067 17.8812L12.3067 17.8962C12.3067 18.2881 12.6517 18.665 13.0567 18.6462C13.4636 18.6275 13.8067 18.3162 13.8067 17.8962Z" fill="white"/>
</g>
<defs>
<clipPath id="clip0_1_834">
<rect width="19.2" height="19.2" fill="white" transform="translate(0.400391 19.4) rotate(-90)"/>
</clipPath>
</defs>
</svg>
