<svg width="16" height="16" viewBox="0 0 16 16" fill="none" xmlns="http://www.w3.org/2000/svg">
<g id="Icon/Fill/clock">
<path id="Mask" fill-rule="evenodd" clip-rule="evenodd" d="M10.6654 8.66665H7.9987C7.6307 8.66665 7.33203 8.36865 7.33203 7.99998V5.33331C7.33203 4.96465 7.6307 4.66665 7.9987 4.66665C8.3667 4.66665 8.66536 4.96465 8.66536 5.33331V7.33331H10.6654C11.034 7.33331 11.332 7.63131 11.332 7.99998C11.332 8.36865 11.034 8.66665 10.6654 8.66665ZM7.9987 1.33331C4.3227 1.33331 1.33203 4.32398 1.33203 7.99998C1.33203 11.676 4.3227 14.6666 7.9987 14.6666C11.6747 14.6666 14.6654 11.676 14.6654 7.99998C14.6654 4.32398 11.6747 1.33331 7.9987 1.33331Z" fill="white"/>
<mask id="mask0_174_560" style="mask-type:alpha" maskUnits="userSpaceOnUse" x="1" y="1" width="14" height="14">
<path id="Mask_2" fill-rule="evenodd" clip-rule="evenodd" d="M10.6654 8.66665H7.9987C7.6307 8.66665 7.33203 8.36865 7.33203 7.99998V5.33331C7.33203 4.96465 7.6307 4.66665 7.9987 4.66665C8.3667 4.66665 8.66536 4.96465 8.66536 5.33331V7.33331H10.6654C11.034 7.33331 11.332 7.63131 11.332 7.99998C11.332 8.36865 11.034 8.66665 10.6654 8.66665ZM7.9987 1.33331C4.3227 1.33331 1.33203 4.32398 1.33203 7.99998C1.33203 11.676 4.3227 14.6666 7.9987 14.6666C11.6747 14.6666 14.6654 11.676 14.6654 7.99998C14.6654 4.32398 11.6747 1.33331 7.9987 1.33331Z" fill="white"/>
</mask>
<g mask="url(#mask0_174_560)">
<g id="&#240;&#159;&#142;&#168; Color">
<rect id="Base" width="16" height="16" fill="white"/>
</g>
</g>
</g>
</svg>
