<svg width="163" height="40" viewBox="0 0 163 40" fill="none" xmlns="http://www.w3.org/2000/svg">
<g clip-path="url(#clip0_6_492)">
<path d="M42.8037 14.1769H59.2954V17.2538H52.8109V34.5507H49.2451V17.2538H42.7893V14.1769H42.8037ZM58.5909 19.7987H61.6391V22.6456H61.6966C61.7972 22.243 61.9841 21.8548 62.2573 21.4809C62.5305 21.1071 62.8612 20.7477 63.2494 20.4457C63.6376 20.1294 64.069 19.885 64.5434 19.6837C65.0179 19.4968 65.5068 19.3961 65.9956 19.3961C66.3695 19.3961 66.6427 19.4105 66.7864 19.4249C66.9302 19.4393 67.074 19.468 67.2322 19.4824V22.6168C67.0021 22.5737 66.7721 22.5449 66.5276 22.5162C66.2832 22.4874 66.0531 22.473 65.8231 22.473C65.2767 22.473 64.7591 22.5881 64.2703 22.8037C63.7814 23.0194 63.3644 23.3501 63.005 23.7671C62.6455 24.1984 62.358 24.716 62.1423 25.3487C61.9266 25.9813 61.826 26.7002 61.826 27.5198V34.5363H58.5765V19.7987H58.5909ZM82.1711 34.5507H78.9791V32.4946H78.9216C78.519 33.2423 77.9295 33.8318 77.1387 34.2775C76.3479 34.7232 75.5427 34.9533 74.7232 34.9533C72.7821 34.9533 71.3731 34.4788 70.5104 33.5155C69.6477 32.5521 69.2163 31.0999 69.2163 29.1589V19.7987H72.4658V28.8426C72.4658 30.1366 72.7102 31.0568 73.2135 31.5888C73.7023 32.1208 74.4069 32.394 75.2983 32.394C75.9884 32.394 76.5492 32.2933 77.0093 32.0776C77.4694 31.862 77.8432 31.5888 78.1164 31.2293C78.404 30.8843 78.6053 30.4529 78.7347 29.9641C78.8641 29.4752 78.9216 28.9432 78.9216 28.3681V19.8131H82.1711V34.5507ZM87.7066 29.8203C87.8073 30.7692 88.1667 31.4306 88.785 31.8188C89.4176 32.1927 90.1653 32.394 91.0424 32.394C91.3443 32.394 91.6894 32.3652 92.0776 32.3221C92.4658 32.2789 92.8396 32.1783 93.1703 32.0489C93.5154 31.9195 93.7886 31.7182 94.0186 31.4594C94.2343 31.2006 94.335 30.8699 94.3206 30.4529C94.3062 30.0359 94.148 29.6909 93.8605 29.4321C93.5729 29.1589 93.2135 28.9576 92.7677 28.785C92.322 28.6269 91.8188 28.4831 91.2437 28.3681C90.6685 28.2531 90.0934 28.1237 89.5039 27.9943C88.9 27.8648 88.3105 27.6923 87.7498 27.5054C87.189 27.3185 86.6858 27.0597 86.2401 26.729C85.7943 26.4127 85.4349 25.9957 85.1761 25.4925C84.9029 24.9892 84.7735 24.371 84.7735 23.6233C84.7735 22.8181 84.9748 22.1567 85.363 21.6104C85.7512 21.064 86.2544 20.6326 86.8439 20.3019C87.4478 19.9712 88.1092 19.7412 88.8425 19.5974C89.5758 19.468 90.2803 19.3961 90.9417 19.3961C91.7038 19.3961 92.437 19.4824 93.1272 19.6405C93.8174 19.7987 94.45 20.0575 95.0107 20.4313C95.5715 20.7908 96.0316 21.2653 96.4054 21.8404C96.7792 22.4155 97.0093 23.1201 97.1099 23.9396H93.7167C93.5585 23.1632 93.2135 22.6312 92.6527 22.3724C92.092 22.0992 91.445 21.9698 90.726 21.9698C90.496 21.9698 90.2228 21.9842 89.9065 22.0273C89.5902 22.0705 89.3026 22.1423 89.015 22.243C88.7419 22.3436 88.5118 22.5018 88.3105 22.7031C88.1236 22.9044 88.023 23.1632 88.023 23.4939C88.023 23.8965 88.1667 24.2128 88.4399 24.4572C88.7131 24.7017 89.0726 24.9029 89.5183 25.0755C89.964 25.2336 90.4672 25.3774 91.0424 25.4925C91.6175 25.6075 92.207 25.7369 92.8109 25.8663C93.4004 25.9957 93.9755 26.1682 94.5506 26.3551C95.1258 26.5421 95.629 26.8009 96.0747 27.1316C96.5204 27.4623 96.8799 27.8648 97.1531 28.3537C97.4263 28.8426 97.57 29.4608 97.57 30.1797C97.57 31.0568 97.3688 31.7901 96.9662 32.4083C96.5636 33.0122 96.046 33.5155 95.4133 33.8893C94.7807 34.2631 94.0618 34.5507 93.2854 34.7232C92.5089 34.8958 91.7325 34.982 90.9705 34.982C90.0359 34.982 89.1732 34.8814 88.3824 34.6657C87.5916 34.45 86.9015 34.1337 86.3263 33.7168C85.7512 33.2854 85.2911 32.7534 84.9604 32.1208C84.6297 31.4881 84.4572 30.7261 84.4284 29.849H87.7066V29.8203ZM98.4327 19.7987H100.891V15.3702H104.141V19.7987H107.074V22.2286H104.141V30.1078C104.141 30.4529 104.155 30.7405 104.184 30.9993C104.213 31.2437 104.285 31.4594 104.385 31.6319C104.486 31.8045 104.644 31.9339 104.86 32.0201C105.075 32.1064 105.349 32.1495 105.722 32.1495C105.953 32.1495 106.183 32.1495 106.413 32.1352C106.643 32.1208 106.873 32.092 107.103 32.0345V34.5507C106.743 34.5938 106.384 34.6226 106.053 34.6657C105.708 34.7088 105.363 34.7232 105.004 34.7232C104.141 34.7232 103.451 34.637 102.933 34.4788C102.415 34.3206 101.999 34.0762 101.711 33.7599C101.409 33.4436 101.222 33.0554 101.107 32.5809C101.006 32.1064 100.935 31.56 100.92 30.9562V22.2574H98.4615V19.7987H98.4327ZM109.375 19.7987H112.451V21.7973H112.509C112.969 20.9346 113.602 20.3307 114.421 19.9569C115.241 19.583 116.118 19.3961 117.081 19.3961C118.246 19.3961 119.252 19.5974 120.115 20.0144C120.978 20.417 121.697 20.9777 122.272 21.6966C122.847 22.4155 123.264 23.2495 123.551 24.1984C123.839 25.1474 123.983 26.1682 123.983 27.2466C123.983 28.2387 123.853 29.202 123.594 30.1222C123.336 31.0568 122.947 31.8764 122.43 32.5953C121.912 33.3142 121.251 33.8749 120.446 34.3063C119.64 34.7376 118.706 34.9533 117.613 34.9533C117.139 34.9533 116.664 34.9101 116.19 34.8239C115.715 34.7376 115.255 34.5938 114.824 34.4069C114.392 34.22 113.976 33.9756 113.616 33.6736C113.242 33.3717 112.94 33.0266 112.681 32.6384H112.624V40H109.375V19.7987ZM120.733 27.1891C120.733 26.5277 120.647 25.8807 120.474 25.248C120.302 24.6154 120.043 24.069 119.698 23.5802C119.353 23.0913 118.922 22.7031 118.418 22.4155C117.901 22.128 117.311 21.9698 116.65 21.9698C115.284 21.9698 114.249 22.4443 113.559 23.3932C112.868 24.3422 112.523 25.6075 112.523 27.1891C112.523 27.9367 112.61 28.6269 112.797 29.2595C112.983 29.8922 113.242 30.4385 113.616 30.8986C113.976 31.3587 114.407 31.7182 114.91 31.977C115.413 32.2502 116.003 32.3796 116.664 32.3796C117.412 32.3796 118.03 32.2214 118.548 31.9195C119.065 31.6175 119.482 31.215 119.813 30.7405C120.144 30.2516 120.388 29.7053 120.532 29.087C120.661 28.4687 120.733 27.8361 120.733 27.1891ZM126.47 14.1769H129.72V17.2538H126.47V14.1769ZM126.47 19.7987H129.72V34.5507H126.47V19.7987ZM132.624 14.1769H135.873V34.5507H132.624V14.1769ZM145.837 34.9533C144.658 34.9533 143.609 34.752 142.689 34.3638C141.768 33.9756 140.992 33.4292 140.345 32.7534C139.712 32.0633 139.224 31.2437 138.893 30.2948C138.562 29.3458 138.39 28.2962 138.39 27.1603C138.39 26.0388 138.562 25.0036 138.893 24.0546C139.224 23.1057 139.712 22.2861 140.345 21.596C140.978 20.9058 141.768 20.3738 142.689 19.9856C143.609 19.5974 144.658 19.3961 145.837 19.3961C147.016 19.3961 148.066 19.5974 148.986 19.9856C149.906 20.3738 150.683 20.9202 151.33 21.596C151.963 22.2861 152.451 23.1057 152.782 24.0546C153.113 25.0036 153.285 26.0388 153.285 27.1603C153.285 28.2962 153.113 29.3458 152.782 30.2948C152.451 31.2437 151.963 32.0633 151.33 32.7534C150.697 33.4436 149.906 33.9756 148.986 34.3638C148.066 34.752 147.016 34.9533 145.837 34.9533ZM145.837 32.3796C146.556 32.3796 147.189 32.2214 147.721 31.9195C148.253 31.6175 148.684 31.215 149.029 30.7261C149.375 30.2372 149.619 29.6765 149.791 29.0582C149.95 28.44 150.036 27.8073 150.036 27.1603C150.036 26.5277 149.95 25.9094 149.791 25.2768C149.633 24.6441 149.375 24.0978 149.029 23.6089C148.684 23.1201 148.253 22.7318 147.721 22.4299C147.189 22.128 146.556 21.9698 145.837 21.9698C145.119 21.9698 144.486 22.128 143.954 22.4299C143.422 22.7318 142.991 23.1344 142.646 23.6089C142.3 24.0978 142.056 24.6441 141.883 25.2768C141.725 25.9094 141.639 26.5277 141.639 27.1603C141.639 27.8073 141.725 28.44 141.883 29.0582C142.042 29.6765 142.3 30.2372 142.646 30.7261C142.991 31.215 143.422 31.6175 143.954 31.9195C144.486 32.2358 145.119 32.3796 145.837 32.3796ZM154.234 19.7987H156.693V15.3702H159.942V19.7987H162.876V22.2286H159.942V30.1078C159.942 30.4529 159.957 30.7405 159.986 30.9993C160.014 31.2437 160.086 31.4594 160.187 31.6319C160.288 31.8045 160.446 31.9339 160.661 32.0201C160.877 32.1064 161.15 32.1495 161.524 32.1495C161.754 32.1495 161.984 32.1495 162.214 32.1352C162.444 32.1208 162.674 32.092 162.904 32.0345V34.5507C162.545 34.5938 162.185 34.6226 161.855 34.6657C161.51 34.7088 161.165 34.7232 160.805 34.7232C159.942 34.7232 159.252 34.637 158.735 34.4788C158.217 34.3206 157.8 34.0762 157.513 33.7599C157.211 33.4436 157.024 33.0554 156.909 32.5809C156.808 32.1064 156.736 31.56 156.722 30.9562V22.2574H154.263V19.7987H154.234Z" fill="white"/>
<path d="M39.0079 14.1768H24.1121L19.5111 0L14.8958 14.1768L0 14.1625L12.0633 22.9331L7.44788 37.0956L19.5111 28.3393L31.56 37.0956L26.959 22.9331L39.0079 14.1768Z" fill="#00B67A"/>
<path d="M27.9942 26.1399L26.959 22.9336L19.5111 28.3398L27.9942 26.1399Z" fill="#005128"/>
</g>
<defs>
<clipPath id="clip0_6_492">
<rect width="162.876" height="40" fill="white"/>
</clipPath>
</defs>
</svg>
