<svg xmlns="http://www.w3.org/2000/svg" width="20" height="16" fill="none"><path fill="#fff" d="M19.778 1.937a8.358 8.358 0 0 1-2.31.633A3.987 3.987 0 0 0 19.23.354a8.013 8.013 0 0 1-2.542.97 4.008 4.008 0 0 0-6.935 2.741c0 .318.027.624.093.915A11.348 11.348 0 0 1 1.584.786a4.036 4.036 0 0 0-.549 2.027c0 1.388.715 2.62 1.78 3.332a3.96 3.96 0 0 1-1.81-.494v.044a4.028 4.028 0 0 0 3.211 3.94c-.326.088-.682.131-1.05.131-.257 0-.516-.015-.76-.068.52 1.587 1.994 2.755 3.746 2.792a8.055 8.055 0 0 1-4.97 1.71c-.33 0-.644-.014-.96-.055a11.286 11.286 0 0 0 6.15 1.8c7.378 0 11.411-6.112 11.411-11.409 0-.177-.006-.348-.015-.518a7.997 7.997 0 0 0 2.01-2.081Z"/></svg>